solid Littelfuse Caddy Cover
facet normal -0.996194698091746 -3.072587441801463e-17 0.08715574274765478
  outer loop
    vertex 6.175381983754334 11.25 3.350000000000007
    vertex 6.138155175442704 8.75 2.924495633933189
    vertex 6.175381983754334 8.75 3.3500000000000068
  endloop
endfacet
facet normal -0.996194698091746 -3.072587441801463e-17 0.08715574274765478
  outer loop
    vertex 6.138155175442704 8.75 2.924495633933189
    vertex 6.175381983754334 11.25 3.350000000000007
    vertex 6.138155175442704 11.25 2.9244956339331902
  endloop
endfacet
facet normal -0.9961946980917453 3.657842192621062e-17 -0.08715574274766129
  outer loop
    vertex 6.1381551754427015 11.25 3.775504366066825
    vertex 6.175381983754334 8.75 3.3500000000000068
    vertex 6.1381551754427015 8.75 3.7755043660668237
  endloop
endfacet
facet normal -0.9961946980917453 3.657842192621062e-17 -0.08715574274766129
  outer loop
    vertex 6.175381983754334 8.75 3.3500000000000068
    vertex 6.1381551754427015 11.25 3.775504366066825
    vertex 6.175381983754334 11.25 3.350000000000007
  endloop
endfacet
facet normal -0.9659258262890694 4.388587460883883e-17 0.2588190451025169
  outer loop
    vertex 6.138155175442704 11.25 2.9244956339331902
    vertex 6.027605868240686 8.75 2.511920002713713
    vertex 6.138155175442704 8.75 2.924495633933189
  endloop
endfacet
facet normal -0.9659258262890694 4.388587460883883e-17 0.2588190451025169
  outer loop
    vertex 6.027605868240686 8.75 2.511920002713713
    vertex 6.138155175442704 11.25 2.9244956339331902
    vertex 6.027605868240687 11.25 2.511920002713714
  endloop
endfacet
facet normal -0.9063077870366515 1.3786899983585214e-16 0.42261826174069655
  outer loop
    vertex 6.027605868240687 11.25 2.511920002713714
    vertex 5.847093046906965 8.75 2.1248090081228397
    vertex 6.027605868240686 8.75 2.511920002713713
  endloop
endfacet
facet normal -0.9063077870366515 1.3786899983585214e-16 0.42261826174069655
  outer loop
    vertex 5.847093046906965 8.75 2.1248090081228397
    vertex 6.027605868240687 11.25 2.511920002713714
    vertex 5.8470930469069655 11.25 2.1248090081228406
  endloop
endfacet
facet normal -0.8191520442889935 3.6195442460475255e-17 0.5735764363510437
  outer loop
    vertex 5.8470930469069655 11.25 2.1248090081228406
    vertex 5.602101502173871 8.75 1.7749248218435976
    vertex 5.847093046906965 8.75 2.1248090081228397
  endloop
endfacet
facet normal -0.8191520442889935 3.6195442460475255e-17 0.5735764363510437
  outer loop
    vertex 5.602101502173871 8.75 1.7749248218435976
    vertex 5.8470930469069655 11.25 2.1248090081228406
    vertex 5.602101502173871 11.250000000000002 1.7749248218435976
  endloop
endfacet
facet normal -0.7071067811865501 2.3741269936978603e-17 0.707106781186545
  outer loop
    vertex 5.602101502173871 11.250000000000002 1.7749248218435976
    vertex 5.3000751781564155 8.75 1.47289849782614
    vertex 5.602101502173871 8.75 1.7749248218435976
  endloop
endfacet
facet normal -0.7071067811865501 2.3741269936978603e-17 0.707106781186545
  outer loop
    vertex 5.3000751781564155 8.75 1.47289849782614
    vertex 5.602101502173871 11.250000000000002 1.7749248218435976
    vertex 5.3000751781564155 11.25 1.47289849782614
  endloop
endfacet
facet normal -0.5735764363510499 7.65991327009181e-17 0.8191520442889894
  outer loop
    vertex 5.3000751781564155 8.75 1.47289849782614
    vertex 4.950190991877177 11.25 1.2279069530930442
    vertex 4.950190991877175 8.75 1.2279069530930435
  endloop
endfacet
facet normal -0.5735764363510499 7.65991327009181e-17 0.8191520442889894
  outer loop
    vertex 4.950190991877177 11.25 1.2279069530930442
    vertex 5.3000751781564155 8.75 1.47289849782614
    vertex 5.3000751781564155 11.25 1.47289849782614
  endloop
endfacet
facet normal -0.42261826174070344 1.587793384172267e-17 0.9063077870366482
  outer loop
    vertex 4.950190991877175 8.75 1.2279069530930435
    vertex 4.563079997286305 11.25 1.0473941317593203
    vertex 4.563079997286303 8.75 1.0473941317593196
  endloop
endfacet
facet normal -0.42261826174070344 1.587793384172267e-17 0.9063077870366482
  outer loop
    vertex 4.563079997286305 11.25 1.0473941317593203
    vertex 4.950190991877175 8.75 1.2279069530930435
    vertex 4.950190991877177 11.25 1.2279069530930442
  endloop
endfacet
facet normal 0.42261826174069966 -3.074392451278711e-17 0.9063077870366498
  outer loop
    vertex 2.8869200027137056 8.75 1.0473941317593158
    vertex 2.499809008122833 11.25 1.227906953093038
    vertex 2.4998090081228326 8.75 1.2279069530930382
  endloop
endfacet
facet normal 0.42261826174069966 -3.074392451278711e-17 0.9063077870366498
  outer loop
    vertex 2.499809008122833 11.25 1.227906953093038
    vertex 2.8869200027137056 8.75 1.0473941317593158
    vertex 2.8869200027137056 11.25 1.047394131759316
  endloop
endfacet
facet normal 0.5735764363510454 2.979514954037623e-17 0.8191520442889922
  outer loop
    vertex 2.1499248218435905 8.75 1.4728984978261337
    vertex 2.499809008122833 11.25 1.227906953093038
    vertex 2.1499248218435905 11.25 1.4728984978261337
  endloop
endfacet
facet normal 0.5735764363510454 2.979514954037623e-17 0.8191520442889922
  outer loop
    vertex 2.499809008122833 11.25 1.227906953093038
    vertex 2.1499248218435905 8.75 1.4728984978261337
    vertex 2.4998090081228326 8.75 1.2279069530930382
  endloop
endfacet
facet normal 0.7071067811865483 3.956878322829893e-18 0.7071067811865467
  outer loop
    vertex 2.1499248218435905 11.25 1.4728984978261337
    vertex 1.8478984978261341 8.75 1.7749248218435907
    vertex 2.1499248218435905 8.75 1.4728984978261337
  endloop
endfacet
facet normal 0.7071067811865483 3.956878322829893e-18 0.7071067811865467
  outer loop
    vertex 1.8478984978261341 8.75 1.7749248218435907
    vertex 2.1499248218435905 11.25 1.4728984978261337
    vertex 1.8478984978261341 11.25 1.774924821843591
  endloop
endfacet
facet normal 0.8191520442889917 -1.219670701215025e-16 0.5735764363510463
  outer loop
    vertex 1.8478984978261341 11.25 1.774924821843591
    vertex 1.6029069530930387 8.75 2.124809008122832
    vertex 1.8478984978261341 8.75 1.7749248218435907
  endloop
endfacet
facet normal 0.8191520442889917 -1.219670701215025e-16 0.5735764363510463
  outer loop
    vertex 1.6029069530930387 8.75 2.124809008122832
    vertex 1.8478984978261341 11.25 1.774924821843591
    vertex 1.6029069530930387 11.25 2.1248090081228326
  endloop
endfacet
facet normal 0.9063077870366498 3.103033321442337e-18 0.4226182617406998
  outer loop
    vertex 1.6029069530930387 11.25 2.1248090081228326
    vertex 1.4223941317593163 8.75 2.5119200027137056
    vertex 1.6029069530930387 8.75 2.124809008122832
  endloop
endfacet
facet normal 0.9063077870366498 3.103033321442337e-18 0.4226182617406998
  outer loop
    vertex 1.4223941317593163 8.75 2.5119200027137056
    vertex 1.6029069530930387 11.25 2.1248090081228326
    vertex 1.4223941317593158 11.250000000000002 2.5119200027137056
  endloop
endfacet
facet normal 1.0 0.0 0.0
  outer loop
    vertex 7.449999999999999 23.0 0.0
    vertex 7.449999999999999 1.5000000000000002 0.9999999999999999
    vertex 7.449999999999999 1.5 -8.612465170317914e-17
  endloop
endfacet
facet normal 1.0 0.0 0.0
  outer loop
    vertex 7.449999999999999 1.5000000000000002 0.9999999999999999
    vertex 7.449999999999999 23.0 0.0
    vertex 7.449999999999999 2.3000000000000007 0.9999999999999999
  endloop
endfacet
facet normal 1.0 0.0 0.0
  outer loop
    vertex 7.449999999999999 2.3000000000000007 0.9999999999999999
    vertex 7.449999999999999 23.0 0.0
    vertex 7.449999999999999 22.2 1.0000000000000009
  endloop
endfacet
facet normal 1.0 0.0 0.0
  outer loop
    vertex 7.449999999999999 22.2 1.0000000000000009
    vertex 7.449999999999999 23.0 0.0
    vertex 7.449999999999999 23.0 0.9999999999999999
  endloop
endfacet
facet normal -1.0 0.0 0.0
  outer loop
    vertex -1.9256291380615244e-17 1.5000000000000002 0.9999999999999999
    vertex 0.0 23.0 0.0
    vertex -1.9256291380615244e-17 1.5 -8.612465170317914e-17
  endloop
endfacet
facet normal -1.0 0.0 0.0
  outer loop
    vertex 0.0 23.0 0.0
    vertex -1.9256291380615244e-17 1.5000000000000002 0.9999999999999999
    vertex 0.0 2.3000000000000007 0.9999999999999999
  endloop
endfacet
facet normal -1.0 0.0 0.0
  outer loop
    vertex 0.0 23.0 0.0
    vertex 0.0 2.3000000000000007 0.9999999999999999
    vertex -3.2358450883335045e-16 22.2 1.0000000000000009
  endloop
endfacet
facet normal -1.0 0.0 0.0
  outer loop
    vertex 0.0 23.0 0.0
    vertex -3.2358450883335045e-16 22.2 1.0000000000000009
    vertex 0.0 23.0 0.9999999999999999
  endloop
endfacet
facet normal 0.0 1.0 0.0
  outer loop
    vertex 4.563079997286303 15.75 1.0473941317593196
    vertex 6.524866232305086 15.75 1.0006332771270987
    vertex 4.386202689579911 15.75 0.9999999999999999
  endloop
endfacet
facet normal 0.0 1.0 0.0
  outer loop
    vertex 6.524866232305086 15.75 1.0006332771270987
    vertex 4.563079997286303 15.75 1.0473941317593196
    vertex 6.890293223069335 15.75 1.5225171055968352
  endloop
endfacet
facet normal 0.0 1.0 0.0
  outer loop
    vertex 6.890293223069335 15.75 1.5225171055968352
    vertex 4.563079997286303 15.75 1.0473941317593196
    vertex 4.950190991877175 15.75 1.2279069530930435
  endloop
endfacet
facet normal 0.0 1.0 0.0
  outer loop
    vertex 6.890293223069335 15.75 1.5225171055968352
    vertex 4.950190991877175 15.75 1.2279069530930435
    vertex 5.3000751781564155 15.75 1.47289849782614
  endloop
endfacet
facet normal 0.0 1.0 0.0
  outer loop
    vertex 6.890293223069335 15.75 1.5225171055968352
    vertex 5.3000751781564155 15.75 1.47289849782614
    vertex 5.602101502173871 15.75 1.7749248218435976
  endloop
endfacet
facet normal 0.0 1.0 0.0
  outer loop
    vertex 6.890293223069335 15.75 1.5225171055968352
    vertex 5.602101502173871 15.75 1.7749248218435976
    vertex 7.159544380966278 15.75 2.0999280770620463
  endloop
endfacet
facet normal 0.0 1.0 0.0
  outer loop
    vertex 7.159544380966278 15.75 2.0999280770620463
    vertex 5.602101502173871 15.75 1.7749248218435976
    vertex 5.847093046906965 15.75 2.1248090081228397
  endloop
endfacet
facet normal 0.0 1.0 0.0
  outer loop
    vertex 7.159544380966278 15.75 2.0999280770620463
    vertex 5.847093046906965 15.75 2.1248090081228397
    vertex 7.324438645810877 15.75 2.7153218513388127
  endloop
endfacet
facet normal 0.0 1.0 0.0
  outer loop
    vertex 7.324438645810877 15.75 2.7153218513388127
    vertex 5.847093046906965 15.75 2.1248090081228397
    vertex 6.027605868240686 15.75 2.511920002713713
  endloop
endfacet
facet normal 0.0 1.0 0.0
  outer loop
    vertex 7.324438645810877 15.75 2.7153218513388127
    vertex 6.027605868240686 15.75 2.511920002713713
    vertex 6.138155175442704 15.75 2.924495633933189
  endloop
endfacet
facet normal 0.0 1.0 0.0
  outer loop
    vertex 7.324438645810877 15.75 2.7153218513388127
    vertex 6.138155175442704 15.75 2.924495633933189
    vertex 7.379965788806351 15.75 3.35000000000001
  endloop
endfacet
facet normal 0.0 1.0 0.0
  outer loop
    vertex 7.379965788806351 15.75 3.35000000000001
    vertex 6.138155175442704 15.75 2.924495633933189
    vertex 6.175381983754334 15.75 3.3500000000000068
  endloop
endfacet
facet normal 0.0 1.0 0.0
  outer loop
    vertex 7.379965788806351 15.75 3.35000000000001
    vertex 6.175381983754334 15.75 3.3500000000000068
    vertex 6.1381551754427015 15.75 3.7755043660668237
  endloop
endfacet
facet normal 0.0 1.0 0.0
  outer loop
    vertex 7.379965788806351 15.75 3.35000000000001
    vertex 6.1381551754427015 15.75 3.7755043660668237
    vertex 7.324438645810873 15.75 3.9846781486612066
  endloop
endfacet
facet normal 0.0 1.0 0.0
  outer loop
    vertex 7.324438645810873 15.75 3.9846781486612066
    vertex 6.1381551754427015 15.75 3.7755043660668237
    vertex 6.0276058682406815 15.75 4.188079997286298
  endloop
endfacet
facet normal 0.0 1.0 0.0
  outer loop
    vertex 7.324438645810873 15.75 3.9846781486612066
    vertex 6.0276058682406815 15.75 4.188079997286298
    vertex 7.159544380966272 15.75 4.600071922937972
  endloop
endfacet
facet normal 0.0 1.0 0.0
  outer loop
    vertex 7.159544380966272 15.75 4.600071922937972
    vertex 6.0276058682406815 15.75 4.188079997286298
    vertex 5.9521013309668005 15.75 4.350000000000005
  endloop
endfacet
facet normal 0.0 1.0 0.0
  outer loop
    vertex 7.159544380966272 15.75 4.600071922937972
    vertex 5.9521013309668005 15.75 4.350000000000005
    vertex 6.8902932230693255 15.75 5.177482894403183
  endloop
endfacet
facet normal 0.0 1.0 0.0
  outer loop
    vertex 0.925133767694922 15.75 1.000633277127088
    vertex 2.8869200027137056 15.75 1.0473941317593158
    vertex 3.063797310420087 15.75 0.9999999999999999
  endloop
endfacet
facet normal 0.0 1.0 0.0
  outer loop
    vertex 2.8869200027137056 15.75 1.0473941317593158
    vertex 0.925133767694922 15.75 1.000633277127088
    vertex 0.55970677693067 15.75 1.5225171055968234
  endloop
endfacet
facet normal 0.0 1.0 0.0
  outer loop
    vertex 2.8869200027137056 15.75 1.0473941317593158
    vertex 0.55970677693067 15.75 1.5225171055968234
    vertex 2.4998090081228326 15.75 1.2279069530930382
  endloop
endfacet
facet normal 0.0 1.0 0.0
  outer loop
    vertex 2.4998090081228326 15.75 1.2279069530930382
    vertex 0.55970677693067 15.75 1.5225171055968234
    vertex 2.1499248218435905 15.75 1.4728984978261337
  endloop
endfacet
facet normal 0.0 1.0 0.0
  outer loop
    vertex 2.1499248218435905 15.75 1.4728984978261337
    vertex 0.55970677693067 15.75 1.5225171055968234
    vertex 1.8478984978261341 15.75 1.7749248218435907
  endloop
endfacet
facet normal 0.0 1.0 0.0
  outer loop
    vertex 1.8478984978261341 15.75 1.7749248218435907
    vertex 0.55970677693067 15.75 1.5225171055968234
    vertex 0.2904556190337243 15.75 2.0999280770620348
  endloop
endfacet
facet normal 0.0 1.0 0.0
  outer loop
    vertex 1.8478984978261341 15.75 1.7749248218435907
    vertex 0.2904556190337243 15.75 2.0999280770620348
    vertex 1.6029069530930387 15.75 2.124809008122832
  endloop
endfacet
facet normal 0.0 1.0 0.0
  outer loop
    vertex 1.6029069530930387 15.75 2.124809008122832
    vertex 0.2904556190337243 15.75 2.0999280770620348
    vertex 0.12556135418912423 15.75 2.7153218513388016
  endloop
endfacet
facet normal 0.0 1.0 0.0
  outer loop
    vertex 1.6029069530930387 15.75 2.124809008122832
    vertex 0.12556135418912423 15.75 2.7153218513388016
    vertex 1.4223941317593163 15.75 2.5119200027137056
  endloop
endfacet
facet normal 0.0 1.0 0.0
  outer loop
    vertex 1.4223941317593163 15.75 2.5119200027137056
    vertex 0.12556135418912423 15.75 2.7153218513388016
    vertex 1.311844824557297 15.75 2.9244956339331813
  endloop
endfacet
facet normal 0.0 1.0 0.0
  outer loop
    vertex 1.311844824557297 15.75 2.9244956339331813
    vertex 0.12556135418912423 15.75 2.7153218513388016
    vertex 0.07003421119364815 15.75 3.3499999999999996
  endloop
endfacet
facet normal 0.0 1.0 0.0
  outer loop
    vertex 1.311844824557297 15.75 2.9244956339331813
    vertex 0.07003421119364815 15.75 3.3499999999999996
    vertex 1.2746180162456653 15.75 3.3499999999999996
  endloop
endfacet
facet normal 0.0 1.0 0.0
  outer loop
    vertex 1.2746180162456653 15.75 3.3499999999999996
    vertex 0.07003421119364815 15.75 3.3499999999999996
    vertex 0.12556135418912423 15.75 3.984678148661197
  endloop
endfacet
facet normal 0.0 1.0 0.0
  outer loop
    vertex 1.2746180162456653 15.75 3.3499999999999996
    vertex 0.12556135418912423 15.75 3.984678148661197
    vertex 1.311844824557297 15.75 3.7755043660668175
  endloop
endfacet
facet normal 0.0 1.0 0.0
  outer loop
    vertex 1.311844824557297 15.75 3.7755043660668175
    vertex 0.12556135418912423 15.75 3.984678148661197
    vertex 1.4223941317593158 15.75 4.188079997286294
  endloop
endfacet
facet normal 0.0 1.0 0.0
  outer loop
    vertex 1.4223941317593158 15.75 4.188079997286294
    vertex 0.12556135418912423 15.75 3.984678148661197
    vertex 0.2904556190337243 15.75 4.600071922937963
  endloop
endfacet
facet normal 0.0 1.0 0.0
  outer loop
    vertex 1.4223941317593158 15.75 4.188079997286294
    vertex 0.2904556190337243 15.75 4.600071922937963
    vertex 1.4978986690331948 15.75 4.349999999999999
  endloop
endfacet
facet normal 0.0 1.0 0.0
  outer loop
    vertex 1.4978986690331948 15.75 4.349999999999999
    vertex 0.2904556190337243 15.75 4.600071922937963
    vertex 0.5597067769306693 15.75 5.177482894403174
  endloop
endfacet
facet normal 0.0 -1.0 0.0
  outer loop
    vertex 6.524866232305086 8.75 1.0006332771270987
    vertex 4.563079997286303 8.75 1.0473941317593196
    vertex 4.386202689579911 8.75 0.9999999999999999
  endloop
endfacet
facet normal 0.0 -1.0 0.0
  outer loop
    vertex 4.563079997286303 8.75 1.0473941317593196
    vertex 6.524866232305086 8.75 1.0006332771270987
    vertex 6.890293223069335 8.75 1.5225171055968352
  endloop
endfacet
facet normal 0.0 -1.0 0.0
  outer loop
    vertex 4.563079997286303 8.75 1.0473941317593196
    vertex 6.890293223069335 8.75 1.5225171055968352
    vertex 4.950190991877175 8.75 1.2279069530930435
  endloop
endfacet
facet normal 0.0 -1.0 0.0
  outer loop
    vertex 4.950190991877175 8.75 1.2279069530930435
    vertex 6.890293223069335 8.75 1.5225171055968352
    vertex 5.3000751781564155 8.75 1.47289849782614
  endloop
endfacet
facet normal 0.0 -1.0 0.0
  outer loop
    vertex 5.3000751781564155 8.75 1.47289849782614
    vertex 6.890293223069335 8.75 1.5225171055968352
    vertex 5.602101502173871 8.75 1.7749248218435976
  endloop
endfacet
facet normal 0.0 -1.0 0.0
  outer loop
    vertex 5.602101502173871 8.75 1.7749248218435976
    vertex 6.890293223069335 8.75 1.5225171055968352
    vertex 7.159544380966278 8.75 2.0999280770620463
  endloop
endfacet
facet normal 0.0 -1.0 0.0
  outer loop
    vertex 5.602101502173871 8.75 1.7749248218435976
    vertex 7.159544380966278 8.75 2.0999280770620463
    vertex 5.847093046906965 8.75 2.1248090081228397
  endloop
endfacet
facet normal 0.0 -1.0 0.0
  outer loop
    vertex 5.847093046906965 8.75 2.1248090081228397
    vertex 7.159544380966278 8.75 2.0999280770620463
    vertex 7.324438645810877 8.75 2.7153218513388127
  endloop
endfacet
facet normal 0.0 -1.0 0.0
  outer loop
    vertex 5.847093046906965 8.75 2.1248090081228397
    vertex 7.324438645810877 8.75 2.7153218513388127
    vertex 6.027605868240686 8.75 2.511920002713713
  endloop
endfacet
facet normal 0.0 -1.0 0.0
  outer loop
    vertex 6.027605868240686 8.75 2.511920002713713
    vertex 7.324438645810877 8.75 2.7153218513388127
    vertex 6.138155175442704 8.75 2.924495633933189
  endloop
endfacet
facet normal 0.0 -1.0 0.0
  outer loop
    vertex 6.138155175442704 8.75 2.924495633933189
    vertex 7.324438645810877 8.75 2.7153218513388127
    vertex 7.379965788806351 8.75 3.35000000000001
  endloop
endfacet
facet normal 0.0 -1.0 0.0
  outer loop
    vertex 6.138155175442704 8.75 2.924495633933189
    vertex 7.379965788806351 8.75 3.35000000000001
    vertex 6.175381983754334 8.75 3.3500000000000068
  endloop
endfacet
facet normal 0.0 -1.0 0.0
  outer loop
    vertex 6.175381983754334 8.75 3.3500000000000068
    vertex 7.379965788806351 8.75 3.35000000000001
    vertex 6.1381551754427015 8.75 3.7755043660668237
  endloop
endfacet
facet normal 0.0 -1.0 0.0
  outer loop
    vertex 6.1381551754427015 8.75 3.7755043660668237
    vertex 7.379965788806351 8.75 3.35000000000001
    vertex 7.324438645810873 8.75 3.9846781486612066
  endloop
endfacet
facet normal 0.0 -1.0 0.0
  outer loop
    vertex 6.1381551754427015 8.75 3.7755043660668237
    vertex 7.324438645810873 8.75 3.9846781486612066
    vertex 6.0276058682406815 8.75 4.188079997286298
  endloop
endfacet
facet normal 0.0 -1.0 0.0
  outer loop
    vertex 6.0276058682406815 8.75 4.188079997286298
    vertex 7.324438645810873 8.75 3.9846781486612066
    vertex 7.159544380966272 8.75 4.600071922937972
  endloop
endfacet
facet normal 0.0 -1.0 0.0
  outer loop
    vertex 6.0276058682406815 8.75 4.188079997286298
    vertex 7.159544380966272 8.75 4.600071922937972
    vertex 5.9521013309668005 8.75 4.350000000000005
  endloop
endfacet
facet normal 0.0 -1.0 0.0
  outer loop
    vertex 5.9521013309668005 8.75 4.350000000000005
    vertex 7.159544380966272 8.75 4.600071922937972
    vertex 6.8902932230693255 8.75 5.177482894403183
  endloop
endfacet
facet normal 0.2588190451025202 -3.3782476929184004e-17 0.9659258262890684
  outer loop
    vertex 3.063797310420087 8.75 0.9999999999999999
    vertex 2.8869200027137056 11.25 1.047394131759316
    vertex 2.8869200027137056 8.75 1.0473941317593158
  endloop
endfacet
facet normal 0.2588190451025202 -3.3782476929184004e-17 0.9659258262890684
  outer loop
    vertex 2.8869200027137056 11.25 1.047394131759316
    vertex 3.063797310420087 8.75 0.9999999999999999
    vertex 3.063797310420087 11.25 0.9999999999999999
  endloop
endfacet
facet normal 0.0 -1.0 0.0
  outer loop
    vertex 2.8869200027137056 8.75 1.0473941317593158
    vertex 0.925133767694922 8.75 1.000633277127088
    vertex 3.063797310420087 8.75 0.9999999999999999
  endloop
endfacet
facet normal 0.0 -1.0 0.0
  outer loop
    vertex 0.925133767694922 8.75 1.000633277127088
    vertex 2.8869200027137056 8.75 1.0473941317593158
    vertex 0.55970677693067 8.75 1.5225171055968234
  endloop
endfacet
facet normal 0.0 -1.0 0.0
  outer loop
    vertex 0.55970677693067 8.75 1.5225171055968234
    vertex 2.8869200027137056 8.75 1.0473941317593158
    vertex 2.4998090081228326 8.75 1.2279069530930382
  endloop
endfacet
facet normal 0.0 -1.0 0.0
  outer loop
    vertex 0.55970677693067 8.75 1.5225171055968234
    vertex 2.4998090081228326 8.75 1.2279069530930382
    vertex 2.1499248218435905 8.75 1.4728984978261337
  endloop
endfacet
facet normal 0.0 -1.0 0.0
  outer loop
    vertex 0.55970677693067 8.75 1.5225171055968234
    vertex 2.1499248218435905 8.75 1.4728984978261337
    vertex 1.8478984978261341 8.75 1.7749248218435907
  endloop
endfacet
facet normal 0.0 -1.0 0.0
  outer loop
    vertex 0.55970677693067 8.75 1.5225171055968234
    vertex 1.8478984978261341 8.75 1.7749248218435907
    vertex 0.2904556190337243 8.75 2.0999280770620348
  endloop
endfacet
facet normal 0.0 -1.0 0.0
  outer loop
    vertex 0.2904556190337243 8.75 2.0999280770620348
    vertex 1.8478984978261341 8.75 1.7749248218435907
    vertex 1.6029069530930387 8.75 2.124809008122832
  endloop
endfacet
facet normal 0.0 -1.0 0.0
  outer loop
    vertex 0.2904556190337243 8.75 2.0999280770620348
    vertex 1.6029069530930387 8.75 2.124809008122832
    vertex 0.12556135418912423 8.75 2.7153218513388016
  endloop
endfacet
facet normal 0.0 -1.0 0.0
  outer loop
    vertex 0.12556135418912423 8.75 2.7153218513388016
    vertex 1.6029069530930387 8.75 2.124809008122832
    vertex 1.4223941317593163 8.75 2.5119200027137056
  endloop
endfacet
facet normal 0.0 -1.0 0.0
  outer loop
    vertex 0.12556135418912423 8.75 2.7153218513388016
    vertex 1.4223941317593163 8.75 2.5119200027137056
    vertex 1.311844824557297 8.75 2.9244956339331813
  endloop
endfacet
facet normal 0.0 -1.0 0.0
  outer loop
    vertex 0.12556135418912423 8.75 2.7153218513388016
    vertex 1.311844824557297 8.75 2.9244956339331813
    vertex 0.07003421119364815 8.75 3.3499999999999996
  endloop
endfacet
facet normal 0.0 -1.0 0.0
  outer loop
    vertex 0.07003421119364815 8.75 3.3499999999999996
    vertex 1.311844824557297 8.75 2.9244956339331813
    vertex 1.2746180162456653 8.75 3.3499999999999996
  endloop
endfacet
facet normal 0.0 -1.0 0.0
  outer loop
    vertex 0.07003421119364815 8.75 3.3499999999999996
    vertex 1.2746180162456653 8.75 3.3499999999999996
    vertex 1.311844824557297 8.75 3.7755043660668175
  endloop
endfacet
facet normal 0.0 -1.0 0.0
  outer loop
    vertex 0.07003421119364815 8.75 3.3499999999999996
    vertex 1.311844824557297 8.75 3.7755043660668175
    vertex 0.12556135418912423 8.75 3.984678148661197
  endloop
endfacet
facet normal 0.0 -1.0 0.0
  outer loop
    vertex 0.12556135418912423 8.75 3.984678148661197
    vertex 1.311844824557297 8.75 3.7755043660668175
    vertex 1.4223941317593158 8.75 4.188079997286294
  endloop
endfacet
facet normal 0.0 -1.0 0.0
  outer loop
    vertex 0.12556135418912423 8.75 3.984678148661197
    vertex 1.4223941317593158 8.75 4.188079997286294
    vertex 0.2904556190337243 8.75 4.600071922937963
  endloop
endfacet
facet normal 0.0 -1.0 0.0
  outer loop
    vertex 0.2904556190337243 8.75 4.600071922937963
    vertex 1.4223941317593158 8.75 4.188079997286294
    vertex 1.4978986690331948 8.75 4.349999999999999
  endloop
endfacet
facet normal 0.0 -1.0 0.0
  outer loop
    vertex 0.2904556190337243 8.75 4.600071922937963
    vertex 1.4978986690331948 8.75 4.349999999999999
    vertex 0.5597067769306693 8.75 5.177482894403174
  endloop
endfacet
facet normal -0.2588190451025259 2.8883022041231024e-17 0.9659258262890669
  outer loop
    vertex 4.563079997286305 13.250000000000002 1.0473941317593203
    vertex 4.386202689579911 15.75 0.9999999999999999
    vertex 4.386202689579911 13.250000000000002 0.9999999999999999
  endloop
endfacet
facet normal -0.2588190451025259 2.8883022041231024e-17 0.9659258262890669
  outer loop
    vertex 4.386202689579911 15.75 0.9999999999999999
    vertex 4.563079997286305 13.250000000000002 1.0473941317593203
    vertex 4.563079997286303 15.75 1.0473941317593196
  endloop
endfacet
facet normal -0.9063077870366456 1.9572403622810715e-16 -0.42261826174070877
  outer loop
    vertex 5.9521013309668005 15.75 4.350000000000005
    vertex 6.0276058682406815 13.250000000000002 4.188079997286299
    vertex 5.952101330966799 13.250000000000002 4.350000000000005
  endloop
endfacet
facet normal -0.9063077870366456 1.9572403622810715e-16 -0.42261826174070877
  outer loop
    vertex 6.0276058682406815 13.250000000000002 4.188079997286299
    vertex 5.9521013309668005 15.75 4.350000000000005
    vertex 6.0276058682406815 15.75 4.188079997286298
  endloop
endfacet
facet normal -0.6614717389064587 -1.8455494086017959e-16 0.7499700918223777
  outer loop
    vertex 5.9521013309668005 8.75 4.350000000000005
    vertex 6.8902932230693255 11.25 5.177482894403183
    vertex 5.952101330966799 11.25 4.350000000000005
  endloop
endfacet
facet normal -0.6614717389064587 -1.8455494086017959e-16 0.7499700918223777
  outer loop
    vertex 6.8902932230693255 11.25 5.177482894403183
    vertex 5.9521013309668005 8.75 4.350000000000005
    vertex 6.8902932230693255 8.75 5.177482894403183
  endloop
endfacet
facet normal 0.9063077870366487 -1.1824586351072047e-16 0.4226182617407021
  outer loop
    vertex 7.159544380966272 11.25 4.600071922937973
    vertex 6.8902932230693255 8.75 5.177482894403183
    vertex 7.159544380966272 8.75 4.600071922937972
  endloop
endfacet
facet normal 0.9063077870366487 -1.1824586351072047e-16 0.4226182617407021
  outer loop
    vertex 6.8902932230693255 8.75 5.177482894403183
    vertex 7.159544380966272 11.25 4.600071922937973
    vertex 6.8902932230693255 11.25 5.177482894403183
  endloop
endfacet
facet normal 0.965925826289068 -1.4637016983423404e-16 0.2588190451025221
  outer loop
    vertex 7.324438645810873 11.25 3.984678148661208
    vertex 7.159544380966272 8.75 4.600071922937972
    vertex 7.324438645810873 8.75 3.9846781486612066
  endloop
endfacet
facet normal 0.965925826289068 -1.4637016983423404e-16 0.2588190451025221
  outer loop
    vertex 7.159544380966272 8.75 4.600071922937972
    vertex 7.324438645810873 11.25 3.984678148661208
    vertex 7.159544380966272 11.25 4.600071922937973
  endloop
endfacet
facet normal 0.9961946980917451 -3.2959054612649007e-16 0.08715574274766302
  outer loop
    vertex 7.379965788806353 11.25 3.3500000000000116
    vertex 7.324438645810873 8.75 3.9846781486612066
    vertex 7.379965788806351 8.75 3.35000000000001
  endloop
endfacet
facet normal 0.9961946980917451 -3.2959054612649007e-16 0.08715574274766302
  outer loop
    vertex 7.324438645810873 8.75 3.9846781486612066
    vertex 7.379965788806353 11.25 3.3500000000000116
    vertex 7.324438645810873 11.25 3.984678148661208
  endloop
endfacet
facet normal 0.9961946980917458 -5.314004716574174e-16 -0.08715574274765737
  outer loop
    vertex 7.3244386458108774 11.25 2.715321851338813
    vertex 7.379965788806351 8.75 3.35000000000001
    vertex 7.324438645810877 8.75 2.7153218513388127
  endloop
endfacet
facet normal 0.9961946980917458 -5.314004716574174e-16 -0.08715574274765737
  outer loop
    vertex 7.379965788806351 8.75 3.35000000000001
    vertex 7.3244386458108774 11.25 2.715321851338813
    vertex 7.379965788806353 11.25 3.3500000000000116
  endloop
endfacet
facet normal 0.9659258262890688 3.765626763183103e-17 -0.2588190451025195
  outer loop
    vertex 7.159544380966277 11.25 2.0999280770620463
    vertex 7.324438645810877 8.75 2.7153218513388127
    vertex 7.159544380966278 8.75 2.0999280770620463
  endloop
endfacet
facet normal 0.9659258262890688 3.765626763183103e-17 -0.2588190451025195
  outer loop
    vertex 7.324438645810877 8.75 2.7153218513388127
    vertex 7.159544380966277 11.25 2.0999280770620463
    vertex 7.3244386458108774 11.25 2.715321851338813
  endloop
endfacet
facet normal 0.9063077870366518 3.2925642526722723e-16 -0.4226182617406954
  outer loop
    vertex 6.890293223069335 11.25 1.5225171055968356
    vertex 7.159544380966278 8.75 2.0999280770620463
    vertex 6.890293223069335 8.75 1.5225171055968352
  endloop
endfacet
facet normal 0.9063077870366518 3.2925642526722723e-16 -0.4226182617406954
  outer loop
    vertex 7.159544380966278 8.75 2.0999280770620463
    vertex 6.890293223069335 11.25 1.5225171055968356
    vertex 7.159544380966277 11.25 2.0999280770620463
  endloop
endfacet
facet normal 0.8193155486269905 -7.261698289382178e-05 -0.5733428524930153
  outer loop
    vertex 6.524866232305086 11.25 0.9999999999999999
    vertex 6.890293223069335 8.75 1.5225171055968352
    vertex 6.524866232305086 8.75 1.0006332771270987
  endloop
endfacet
facet normal 0.8193155486269905 -7.261698289382178e-05 -0.5733428524930153
  outer loop
    vertex 6.890293223069335 8.75 1.5225171055968352
    vertex 6.524866232305086 11.25 0.9999999999999999
    vertex 6.890293223069335 11.25 1.5225171055968356
  endloop
endfacet
facet normal -0.8944271909999161 8.752465387471494e-31 0.4472135954999579
  outer loop
    vertex 0.9999999999999994 22.200000000000003 3.000000000000001
    vertex 0.0 23.0 0.9999999999999999
    vertex -3.2358450883335045e-16 22.2 1.0000000000000009
  endloop
endfacet
facet normal -0.8944271909999161 8.752465387471494e-31 0.4472135954999579
  outer loop
    vertex 0.0 23.0 0.9999999999999999
    vertex 0.9999999999999994 22.200000000000003 3.000000000000001
    vertex 0.9999999999999998 23.0 3.0
  endloop
endfacet
facet normal 0.894427190999916 -4.887792157925987e-17 0.4472135954999578
  outer loop
    vertex 7.449999999999999 23.0 0.9999999999999999
    vertex 6.449999999999999 22.2 3.000000000000001
    vertex 7.449999999999999 22.2 1.0000000000000009
  endloop
endfacet
facet normal 0.894427190999916 -4.887792157925987e-17 0.4472135954999578
  outer loop
    vertex 6.449999999999999 22.2 3.000000000000001
    vertex 7.449999999999999 23.0 0.9999999999999999
    vertex 6.449999999999999 23.0 3.0
  endloop
endfacet
facet normal 0.6614717389064578 -1.757423221077366e-16 0.7499700918223786
  outer loop
    vertex 1.4978986690331948 8.75 4.349999999999999
    vertex 0.5597067769306696 11.25 5.177482894403175
    vertex 0.5597067769306693 8.75 5.177482894403174
  endloop
endfacet
facet normal 0.6614717389064578 -1.757423221077366e-16 0.7499700918223786
  outer loop
    vertex 0.5597067769306696 11.25 5.177482894403175
    vertex 1.4978986690331948 8.75 4.349999999999999
    vertex 1.497898669033195 11.25 4.349999999999999
  endloop
endfacet
facet normal 0.9961946980917455 -3.33129005358967e-17 -0.0871557427476591
  outer loop
    vertex 1.2746180162456653 11.25 3.35
    vertex 1.311844824557297 8.75 3.7755043660668175
    vertex 1.2746180162456653 8.75 3.3499999999999996
  endloop
endfacet
facet normal 0.9961946980917455 -3.33129005358967e-17 -0.0871557427476591
  outer loop
    vertex 1.311844824557297 8.75 3.7755043660668175
    vertex 1.2746180162456653 11.25 3.35
    vertex 1.3118448245572973 11.25 3.775504366066819
  endloop
endfacet
facet normal -0.9063077870366502 4.442709855721259e-18 0.42261826174069905
  outer loop
    vertex 0.5597067769306696 11.25 5.177482894403175
    vertex 0.2904556190337243 8.75 4.600071922937963
    vertex 0.5597067769306693 8.75 5.177482894403174
  endloop
endfacet
facet normal -0.9063077870366502 4.442709855721259e-18 0.42261826174069905
  outer loop
    vertex 0.2904556190337243 8.75 4.600071922937963
    vertex 0.5597067769306696 11.25 5.177482894403175
    vertex 0.2904556190337243 11.25 4.600071922937963
  endloop
endfacet
facet normal -0.9659258262890684 -3.2805322198216184e-17 -0.25881904510252035
  outer loop
    vertex 0.12556135418912423 11.25 2.7153218513388016
    vertex 0.2904556190337243 8.75 2.0999280770620348
    vertex 0.12556135418912423 8.75 2.7153218513388016
  endloop
endfacet
facet normal -0.9659258262890684 -3.2805322198216184e-17 -0.25881904510252035
  outer loop
    vertex 0.2904556190337243 8.75 2.0999280770620348
    vertex 0.12556135418912423 11.25 2.7153218513388016
    vertex 0.2904556190337239 11.25 2.0999280770620357
  endloop
endfacet
facet normal 0.9063077870366496 -2.425073318519478e-17 -0.4226182617407003
  outer loop
    vertex 1.4223941317593158 15.75 4.188079997286294
    vertex 1.497898669033195 13.250000000000002 4.349999999999999
    vertex 1.4223941317593163 13.250000000000002 4.1880799972862945
  endloop
endfacet
facet normal 0.9063077870366496 -2.425073318519478e-17 -0.4226182617407003
  outer loop
    vertex 1.497898669033195 13.250000000000002 4.349999999999999
    vertex 1.4223941317593158 15.75 4.188079997286294
    vertex 1.4978986690331948 15.75 4.349999999999999
  endloop
endfacet
facet normal -0.9659258262890684 -3.475963166015188e-17 0.2588190451025207
  outer loop
    vertex 0.2904556190337243 11.25 4.600071922937963
    vertex 0.12556135418912423 8.75 3.984678148661197
    vertex 0.2904556190337243 8.75 4.600071922937963
  endloop
endfacet
facet normal -0.9659258262890684 -3.475963166015188e-17 0.2588190451025207
  outer loop
    vertex 0.12556135418912423 8.75 3.984678148661197
    vertex 0.2904556190337243 11.25 4.600071922937963
    vertex 0.12556135418912423 11.25 3.9846781486611973
  endloop
endfacet
facet normal -0.9961946980917455 1.1705095016387006e-17 -0.08715574274765837
  outer loop
    vertex 0.07003421119364815 11.25 3.35
    vertex 0.12556135418912423 8.75 2.7153218513388016
    vertex 0.07003421119364815 8.75 3.3499999999999996
  endloop
endfacet
facet normal -0.9961946980917455 1.1705095016387006e-17 -0.08715574274765837
  outer loop
    vertex 0.12556135418912423 8.75 2.7153218513388016
    vertex 0.07003421119364815 11.25 3.35
    vertex 0.12556135418912423 11.25 2.7153218513388016
  endloop
endfacet
facet normal 0.0 0.0 -1.0
  outer loop
    vertex 0.0 23.0 0.0
    vertex 7.449999999999999 1.5 -8.612465170317914e-17
    vertex -1.9256291380615244e-17 1.5 -8.612465170317914e-17
  endloop
endfacet
facet normal 0.0 0.0 -1.0
  outer loop
    vertex 7.449999999999999 1.5 -8.612465170317914e-17
    vertex 0.0 23.0 0.0
    vertex 7.449999999999999 23.0 0.0
  endloop
endfacet
facet normal -0.9961946980917455 -2.5361039202171895e-17 0.08715574274765854
  outer loop
    vertex 0.12556135418912423 11.25 3.9846781486611973
    vertex 0.07003421119364815 8.75 3.3499999999999996
    vertex 0.12556135418912423 8.75 3.984678148661197
  endloop
endfacet
facet normal -0.9961946980917455 -2.5361039202171895e-17 0.08715574274765854
  outer loop
    vertex 0.07003421119364815 8.75 3.3499999999999996
    vertex 0.12556135418912423 11.25 3.9846781486611973
    vertex 0.07003421119364815 11.25 3.35
  endloop
endfacet
facet normal 0.0 1.0 0.0
  outer loop
    vertex 0.0 23.0 0.9999999999999999
    vertex 7.449999999999999 23.0 0.0
    vertex 0.0 23.0 0.0
  endloop
endfacet
facet normal 0.0 1.0 0.0
  outer loop
    vertex 7.449999999999999 23.0 0.0
    vertex 0.0 23.0 0.9999999999999999
    vertex 7.449999999999999 23.0 0.9999999999999999
  endloop
endfacet
facet normal 0.0 1.0 0.0
  outer loop
    vertex 7.449999999999999 23.0 0.9999999999999999
    vertex 0.0 23.0 0.9999999999999999
    vertex 0.9999999999999998 23.0 3.0
  endloop
endfacet
facet normal 0.0 1.0 0.0
  outer loop
    vertex 7.449999999999999 23.0 0.9999999999999999
    vertex 0.9999999999999998 23.0 3.0
    vertex 6.449999999999999 23.0 3.0
  endloop
endfacet
facet normal -0.819152044288992 1.6351474869736597e-17 -0.5735764363510462
  outer loop
    vertex 0.5597067769306698 11.25 1.522517105596824
    vertex 0.925133767694922 8.75 1.000633277127088
    vertex 0.55970677693067 8.75 1.5225171055968234
  endloop
endfacet
facet normal -0.819152044288992 1.6351474869736597e-17 -0.5735764363510462
  outer loop
    vertex 0.925133767694922 8.75 1.000633277127088
    vertex 0.5597067769306698 11.25 1.522517105596824
    vertex 0.9255771931130841 11.25 1.0000000000000009
  endloop
endfacet
facet normal 0.9659258262890685 6.999292712894933e-18 -0.25881904510251985
  outer loop
    vertex 1.3118448245572973 11.25 3.775504366066819
    vertex 1.4223941317593158 8.75 4.188079997286294
    vertex 1.311844824557297 8.75 3.7755043660668175
  endloop
endfacet
facet normal 0.9659258262890685 6.999292712894933e-18 -0.25881904510251985
  outer loop
    vertex 1.4223941317593158 8.75 4.188079997286294
    vertex 1.3118448245572973 11.25 3.775504366066819
    vertex 1.4223941317593163 11.25 4.1880799972862945
  endloop
endfacet
facet normal 0.0 0.0 1.0
  outer loop
    vertex 6.449999999999999 1.5000000000000002 3.0
    vertex 0.9999999999999998 2.3000000000000007 3.0
    vertex 0.9999999999999998 1.5000000000000002 3.0
  endloop
endfacet
facet normal 0.0 0.0 1.0
  outer loop
    vertex 0.9999999999999998 2.3000000000000007 3.0
    vertex 6.449999999999999 1.5000000000000002 3.0
    vertex 6.449999999999999 2.3000000000000007 3.0
  endloop
endfacet
facet normal -0.9063077870366498 1.7497728286530086e-17 -0.4226182617406999
  outer loop
    vertex 0.2904556190337239 11.25 2.0999280770620357
    vertex 0.55970677693067 8.75 1.5225171055968234
    vertex 0.2904556190337243 8.75 2.0999280770620348
  endloop
endfacet
facet normal -0.9063077870366498 1.7497728286530086e-17 -0.4226182617406999
  outer loop
    vertex 0.55970677693067 8.75 1.5225171055968234
    vertex 0.2904556190337239 11.25 2.0999280770620357
    vertex 0.5597067769306698 11.25 1.522517105596824
  endloop
endfacet
facet normal 0.9961946980917455 4.812054022352863e-18 0.08715574274765851
  outer loop
    vertex 1.3118448245572967 11.25 2.9244956339331822
    vertex 1.2746180162456653 8.75 3.3499999999999996
    vertex 1.311844824557297 8.75 2.9244956339331813
  endloop
endfacet
facet normal 0.9961946980917455 4.812054022352863e-18 0.08715574274765851
  outer loop
    vertex 1.2746180162456653 8.75 3.3499999999999996
    vertex 1.3118448245572967 11.25 2.9244956339331822
    vertex 1.2746180162456653 11.25 3.35
  endloop
endfacet
facet normal 0.9659258262890684 4.8535816580863046e-17 0.25881904510252035
  outer loop
    vertex 1.4223941317593158 11.250000000000002 2.5119200027137056
    vertex 1.311844824557297 8.75 2.9244956339331813
    vertex 1.4223941317593163 8.75 2.5119200027137056
  endloop
endfacet
facet normal 0.9659258262890684 4.8535816580863046e-17 0.25881904510252035
  outer loop
    vertex 1.311844824557297 8.75 2.9244956339331813
    vertex 1.4223941317593158 11.250000000000002 2.5119200027137056
    vertex 1.3118448245572967 11.25 2.9244956339331822
  endloop
endfacet
facet normal 0.0 0.0 1.0
  outer loop
    vertex 6.449999999999999 22.2 3.000000000000001
    vertex 0.9999999999999998 23.0 3.0
    vertex 0.9999999999999994 22.200000000000003 3.000000000000001
  endloop
endfacet
facet normal 0.0 0.0 1.0
  outer loop
    vertex 0.9999999999999998 23.0 3.0
    vertex 6.449999999999999 22.2 3.000000000000001
    vertex 6.449999999999999 23.0 3.0
  endloop
endfacet
facet normal -0.9659258262890678 1.0862384893797572e-16 -0.2588190451025233
  outer loop
    vertex 6.0276058682406815 11.25 4.188079997286299
    vertex 6.1381551754427015 8.75 3.7755043660668237
    vertex 6.0276058682406815 8.75 4.188079997286298
  endloop
endfacet
facet normal -0.9659258262890678 1.0862384893797572e-16 -0.2588190451025233
  outer loop
    vertex 6.1381551754427015 8.75 3.7755043660668237
    vertex 6.0276058682406815 11.25 4.188079997286299
    vertex 6.1381551754427015 11.25 3.775504366066825
  endloop
endfacet
facet normal -2.1572300588890033e-16 -1.0 6.039224465806752e-16
  outer loop
    vertex 6.449999999999999 22.2 3.000000000000001
    vertex -3.2358450883335045e-16 22.2 1.0000000000000009
    vertex 7.449999999999999 22.2 1.0000000000000009
  endloop
endfacet
facet normal -2.1572300588890033e-16 -1.0 6.039224465806752e-16
  outer loop
    vertex -3.2358450883335045e-16 22.2 1.0000000000000009
    vertex 6.449999999999999 22.2 3.000000000000001
    vertex 0.9999999999999994 22.200000000000003 3.000000000000001
  endloop
endfacet
facet normal 0.9659258262890684 -4.9110964388652e-17 0.25881904510252035
  outer loop
    vertex 1.4223941317593163 15.75 2.5119200027137056
    vertex 1.3118448245572967 13.250000000000002 2.9244956339331822
    vertex 1.4223941317593158 13.250000000000002 2.5119200027137056
  endloop
endfacet
facet normal 0.9659258262890684 -4.9110964388652e-17 0.25881904510252035
  outer loop
    vertex 1.3118448245572967 13.250000000000002 2.9244956339331822
    vertex 1.4223941317593163 15.75 2.5119200027137056
    vertex 1.311844824557297 15.75 2.9244956339331813
  endloop
endfacet
facet normal -0.996194698091746 3.0238162125665265e-17 0.08715574274765478
  outer loop
    vertex 6.175381983754334 15.75 3.3500000000000068
    vertex 6.138155175442704 13.250000000000002 2.9244956339331902
    vertex 6.175381983754334 13.250000000000002 3.350000000000007
  endloop
endfacet
facet normal -0.996194698091746 3.0238162125665265e-17 0.08715574274765478
  outer loop
    vertex 6.138155175442704 13.250000000000002 2.9244956339331902
    vertex 6.175381983754334 15.75 3.3500000000000068
    vertex 6.138155175442704 15.75 2.924495633933189
  endloop
endfacet
facet normal -0.9659258262890694 -4.3788855700166785e-17 0.25881904510251685
  outer loop
    vertex 6.138155175442704 15.75 2.924495633933189
    vertex 6.027605868240687 13.250000000000002 2.511920002713714
    vertex 6.138155175442704 13.250000000000002 2.9244956339331902
  endloop
endfacet
facet normal -0.9659258262890694 -4.3788855700166785e-17 0.25881904510251685
  outer loop
    vertex 6.027605868240687 13.250000000000002 2.511920002713714
    vertex 6.138155175442704 15.75 2.924495633933189
    vertex 6.027605868240686 15.75 2.511920002713713
  endloop
endfacet
facet normal -0.9659258262890678 -1.0862384893797598e-16 -0.2588190451025233
  outer loop
    vertex 6.0276058682406815 15.75 4.188079997286298
    vertex 6.1381551754427015 13.250000000000002 3.775504366066825
    vertex 6.0276058682406815 13.250000000000002 4.188079997286299
  endloop
endfacet
facet normal -0.9659258262890678 -1.0862384893797598e-16 -0.2588190451025233
  outer loop
    vertex 6.1381551754427015 13.250000000000002 3.775504366066825
    vertex 6.0276058682406815 15.75 4.188079997286298
    vertex 6.1381551754427015 15.75 3.7755043660668237
  endloop
endfacet
facet normal -0.9961946980917453 -3.6578421926210084e-17 -0.0871557427476613
  outer loop
    vertex 6.1381551754427015 15.75 3.7755043660668237
    vertex 6.175381983754334 13.250000000000002 3.350000000000007
    vertex 6.1381551754427015 13.250000000000002 3.775504366066825
  endloop
endfacet
facet normal -0.9961946980917453 -3.6578421926210084e-17 -0.0871557427476613
  outer loop
    vertex 6.175381983754334 13.250000000000002 3.350000000000007
    vertex 6.1381551754427015 15.75 3.7755043660668237
    vertex 6.175381983754334 15.75 3.3500000000000068
  endloop
endfacet
facet normal -0.9063077870366515 -1.3296829183943473e-16 0.4226182617406965
  outer loop
    vertex 6.027605868240686 15.75 2.511920002713713
    vertex 5.8470930469069655 13.250000000000002 2.1248090081228406
    vertex 6.027605868240687 13.250000000000002 2.511920002713714
  endloop
endfacet
facet normal -0.9063077870366515 -1.3296829183943473e-16 0.4226182617406965
  outer loop
    vertex 5.8470930469069655 13.250000000000002 2.1248090081228406
    vertex 6.027605868240686 15.75 2.511920002713713
    vertex 5.847093046906965 15.75 2.1248090081228397
  endloop
endfacet
facet normal -0.8191520442889937 -3.4355235500459226e-17 0.5735764363510437
  outer loop
    vertex 5.847093046906965 15.75 2.1248090081228397
    vertex 5.602101502173871 13.250000000000002 1.7749248218435976
    vertex 5.8470930469069655 13.250000000000002 2.1248090081228406
  endloop
endfacet
facet normal -0.8191520442889937 -3.4355235500459226e-17 0.5735764363510437
  outer loop
    vertex 5.602101502173871 13.250000000000002 1.7749248218435976
    vertex 5.847093046906965 15.75 2.1248090081228397
    vertex 5.602101502173871 15.75 1.7749248218435976
  endloop
endfacet
facet normal -0.7071067811865501 -2.3741269936978384e-17 0.7071067811865449
  outer loop
    vertex 5.602101502173871 15.75 1.7749248218435976
    vertex 5.3000751781564155 13.250000000000002 1.47289849782614
    vertex 5.602101502173871 13.250000000000002 1.7749248218435976
  endloop
endfacet
facet normal -0.7071067811865501 -2.3741269936978384e-17 0.7071067811865449
  outer loop
    vertex 5.3000751781564155 13.250000000000002 1.47289849782614
    vertex 5.602101502173871 15.75 1.7749248218435976
    vertex 5.3000751781564155 15.75 1.47289849782614
  endloop
endfacet
facet normal -0.5735764363510498 -7.109753838084988e-17 0.8191520442889892
  outer loop
    vertex 4.950190991877177 13.250000000000002 1.2279069530930442
    vertex 5.3000751781564155 15.75 1.47289849782614
    vertex 4.950190991877175 15.75 1.2279069530930435
  endloop
endfacet
facet normal -0.5735764363510498 -7.109753838084988e-17 0.8191520442889892
  outer loop
    vertex 5.3000751781564155 15.75 1.47289849782614
    vertex 4.950190991877177 13.250000000000002 1.2279069530930442
    vertex 5.3000751781564155 13.250000000000002 1.47289849782614
  endloop
endfacet
facet normal -0.4226182617407034 -1.334214311551883e-17 0.9063077870366482
  outer loop
    vertex 4.563079997286305 13.250000000000002 1.0473941317593203
    vertex 4.950190991877175 15.75 1.2279069530930435
    vertex 4.563079997286303 15.75 1.0473941317593196
  endloop
endfacet
facet normal -0.4226182617407034 -1.334214311551883e-17 0.9063077870366482
  outer loop
    vertex 4.950190991877175 15.75 1.2279069530930435
    vertex 4.563079997286305 13.250000000000002 1.0473941317593203
    vertex 4.950190991877177 13.250000000000002 1.2279069530930442
  endloop
endfacet
facet normal 0.4226182617406996 3.074392451278714e-17 0.9063077870366498
  outer loop
    vertex 2.499809008122833 13.250000000000002 1.227906953093038
    vertex 2.8869200027137056 15.75 1.0473941317593158
    vertex 2.4998090081228326 15.75 1.2279069530930382
  endloop
endfacet
facet normal 0.4226182617406996 3.074392451278714e-17 0.9063077870366498
  outer loop
    vertex 2.8869200027137056 15.75 1.0473941317593158
    vertex 2.499809008122833 13.250000000000002 1.227906953093038
    vertex 2.8869200027137056 13.250000000000002 1.047394131759316
  endloop
endfacet
facet normal 0.5735764363510455 -2.9795149540376267e-17 0.8191520442889922
  outer loop
    vertex 2.499809008122833 13.250000000000002 1.227906953093038
    vertex 2.1499248218435905 15.75 1.4728984978261337
    vertex 2.1499248218435905 13.250000000000002 1.4728984978261337
  endloop
endfacet
facet normal 0.5735764363510455 -2.9795149540376267e-17 0.8191520442889922
  outer loop
    vertex 2.1499248218435905 15.75 1.4728984978261337
    vertex 2.499809008122833 13.250000000000002 1.227906953093038
    vertex 2.4998090081228326 15.75 1.2279069530930382
  endloop
endfacet
facet normal 0.7071067811865483 -7.913756645659578e-18 0.7071067811865467
  outer loop
    vertex 2.1499248218435905 15.75 1.4728984978261337
    vertex 1.8478984978261341 13.250000000000002 1.774924821843591
    vertex 2.1499248218435905 13.250000000000002 1.4728984978261337
  endloop
endfacet
facet normal 0.7071067811865483 -7.913756645659578e-18 0.7071067811865467
  outer loop
    vertex 1.8478984978261341 13.250000000000002 1.774924821843591
    vertex 2.1499248218435905 15.75 1.4728984978261337
    vertex 1.8478984978261341 15.75 1.7749248218435907
  endloop
endfacet
facet normal 0.8191520442889917 1.2517672986154236e-16 0.5735764363510464
  outer loop
    vertex 1.8478984978261341 15.75 1.7749248218435907
    vertex 1.6029069530930387 13.250000000000002 2.1248090081228326
    vertex 1.8478984978261341 13.250000000000002 1.774924821843591
  endloop
endfacet
facet normal 0.8191520442889917 1.2517672986154236e-16 0.5735764363510464
  outer loop
    vertex 1.6029069530930387 13.250000000000002 2.1248090081228326
    vertex 1.8478984978261341 15.75 1.7749248218435907
    vertex 1.6029069530930387 15.75 2.124809008122832
  endloop
endfacet
facet normal 0.9063077870366498 -1.906919129517318e-18 0.4226182617406999
  outer loop
    vertex 1.6029069530930387 15.75 2.124809008122832
    vertex 1.4223941317593158 13.250000000000002 2.5119200027137056
    vertex 1.6029069530930387 13.250000000000002 2.1248090081228326
  endloop
endfacet
facet normal 0.9063077870366498 -1.906919129517318e-18 0.4226182617406999
  outer loop
    vertex 1.4223941317593158 13.250000000000002 2.5119200027137056
    vertex 1.6029069530930387 15.75 2.124809008122832
    vertex 1.4223941317593163 15.75 2.5119200027137056
  endloop
endfacet
facet normal 0.8193155486269905 7.261698289381553e-05 -0.5733428524930153
  outer loop
    vertex 6.524866232305086 15.75 1.0006332771270987
    vertex 6.890293223069335 13.250000000000002 1.5225171055968356
    vertex 6.524866232305086 13.250000000000002 0.9999999999999999
  endloop
endfacet
facet normal 0.8193155486269905 7.261698289381553e-05 -0.5733428524930153
  outer loop
    vertex 6.890293223069335 13.250000000000002 1.5225171055968356
    vertex 6.524866232305086 15.75 1.0006332771270987
    vertex 6.890293223069335 15.75 1.5225171055968352
  endloop
endfacet
facet normal -0.6614717389064588 1.8507552568308583e-16 0.7499700918223777
  outer loop
    vertex 6.8902932230693255 13.250000000000002 5.177482894403183
    vertex 5.9521013309668005 15.75 4.350000000000005
    vertex 5.952101330966799 13.250000000000002 4.350000000000005
  endloop
endfacet
facet normal -0.6614717389064588 1.8507552568308583e-16 0.7499700918223777
  outer loop
    vertex 5.9521013309668005 15.75 4.350000000000005
    vertex 6.8902932230693255 13.250000000000002 5.177482894403183
    vertex 6.8902932230693255 15.75 5.177482894403183
  endloop
endfacet
facet normal 0.9063077870366487 1.135160289702918e-16 0.4226182617407022
  outer loop
    vertex 7.159544380966272 15.75 4.600071922937972
    vertex 6.8902932230693255 13.250000000000002 5.177482894403183
    vertex 7.159544380966272 13.250000000000002 4.600071922937973
  endloop
endfacet
facet normal 0.9063077870366487 1.135160289702918e-16 0.4226182617407022
  outer loop
    vertex 6.8902932230693255 13.250000000000002 5.177482894403183
    vertex 7.159544380966272 15.75 4.600071922937972
    vertex 6.8902932230693255 15.75 5.177482894403183
  endloop
endfacet
facet normal 0.965925826289068 1.4483179858396726e-16 0.2588190451025221
  outer loop
    vertex 7.324438645810873 15.75 3.9846781486612066
    vertex 7.159544380966272 13.250000000000002 4.600071922937973
    vertex 7.324438645810873 13.250000000000002 3.984678148661208
  endloop
endfacet
facet normal 0.965925826289068 1.4483179858396726e-16 0.2588190451025221
  outer loop
    vertex 7.159544380966272 13.250000000000002 4.600071922937973
    vertex 7.324438645810873 15.75 3.9846781486612066
    vertex 7.159544380966272 15.75 4.600071922937972
  endloop
endfacet
facet normal 0.9961946980917451 3.2959054612649164e-16 0.08715574274766301
  outer loop
    vertex 7.379965788806351 15.75 3.35000000000001
    vertex 7.324438645810873 13.250000000000002 3.984678148661208
    vertex 7.379965788806353 13.250000000000002 3.3500000000000116
  endloop
endfacet
facet normal 0.9961946980917451 3.2959054612649164e-16 0.08715574274766301
  outer loop
    vertex 7.324438645810873 13.250000000000002 3.984678148661208
    vertex 7.379965788806351 15.75 3.35000000000001
    vertex 7.324438645810873 15.75 3.9846781486612066
  endloop
endfacet
facet normal 0.9961946980917458 5.31400471657418e-16 -0.08715574274765737
  outer loop
    vertex 7.324438645810877 15.75 2.7153218513388127
    vertex 7.379965788806353 13.250000000000002 3.3500000000000116
    vertex 7.3244386458108774 13.250000000000002 2.715321851338813
  endloop
endfacet
facet normal 0.9961946980917458 5.31400471657418e-16 -0.08715574274765737
  outer loop
    vertex 7.379965788806353 13.250000000000002 3.3500000000000116
    vertex 7.324438645810877 15.75 2.7153218513388127
    vertex 7.379965788806351 15.75 3.35000000000001
  endloop
endfacet
facet normal 0.9659258262890688 -3.765626763183108e-17 -0.2588190451025195
  outer loop
    vertex 7.159544380966278 15.75 2.0999280770620463
    vertex 7.3244386458108774 13.250000000000002 2.715321851338813
    vertex 7.159544380966277 13.250000000000002 2.0999280770620463
  endloop
endfacet
facet normal 0.9659258262890688 -3.765626763183108e-17 -0.2588190451025195
  outer loop
    vertex 7.3244386458108774 13.250000000000002 2.715321851338813
    vertex 7.159544380966278 15.75 2.0999280770620463
    vertex 7.324438645810877 15.75 2.7153218513388127
  endloop
endfacet
facet normal 0.9063077870366518 -3.295981721792068e-16 -0.42261826174069544
  outer loop
    vertex 6.890293223069335 15.75 1.5225171055968352
    vertex 7.159544380966277 13.250000000000002 2.0999280770620463
    vertex 6.890293223069335 13.250000000000002 1.5225171055968356
  endloop
endfacet
facet normal 0.9063077870366518 -3.295981721792068e-16 -0.42261826174069544
  outer loop
    vertex 7.159544380966277 13.250000000000002 2.0999280770620463
    vertex 6.890293223069335 15.75 1.5225171055968352
    vertex 7.159544380966278 15.75 2.0999280770620463
  endloop
endfacet
facet normal 0.6614717389064577 1.6734885034913426e-16 0.7499700918223786
  outer loop
    vertex 0.5597067769306696 13.250000000000002 5.177482894403175
    vertex 1.4978986690331948 15.75 4.349999999999999
    vertex 0.5597067769306693 15.75 5.177482894403174
  endloop
endfacet
facet normal 0.6614717389064577 1.6734885034913426e-16 0.7499700918223786
  outer loop
    vertex 1.4978986690331948 15.75 4.349999999999999
    vertex 0.5597067769306696 13.250000000000002 5.177482894403175
    vertex 1.497898669033195 13.250000000000002 4.349999999999999
  endloop
endfacet
facet normal -0.9063077870366502 -1.4244125848557348e-17 0.42261826174069905
  outer loop
    vertex 0.5597067769306693 15.75 5.177482894403174
    vertex 0.2904556190337243 13.250000000000002 4.600071922937963
    vertex 0.5597067769306696 13.250000000000002 5.177482894403175
  endloop
endfacet
facet normal -0.9063077870366502 -1.4244125848557348e-17 0.42261826174069905
  outer loop
    vertex 0.2904556190337243 13.250000000000002 4.600071922937963
    vertex 0.5597067769306693 15.75 5.177482894403174
    vertex 0.2904556190337243 15.75 4.600071922937963
  endloop
endfacet
facet normal -0.9659258262890684 4.0552903603510726e-17 0.25881904510252063
  outer loop
    vertex 0.2904556190337243 15.75 4.600071922937963
    vertex 0.12556135418912423 13.250000000000002 3.9846781486611973
    vertex 0.2904556190337243 13.250000000000002 4.600071922937963
  endloop
endfacet
facet normal -0.9659258262890684 4.0552903603510726e-17 0.25881904510252063
  outer loop
    vertex 0.12556135418912423 13.250000000000002 3.9846781486611973
    vertex 0.2904556190337243 15.75 4.600071922937963
    vertex 0.12556135418912423 15.75 3.984678148661197
  endloop
endfacet
facet normal 0.9961946980917455 3.331290053589687e-17 -0.08715574274765907
  outer loop
    vertex 1.2746180162456653 15.75 3.3499999999999996
    vertex 1.3118448245572973 13.250000000000002 3.775504366066819
    vertex 1.2746180162456653 13.250000000000002 3.35
  endloop
endfacet
facet normal 0.9961946980917455 3.331290053589687e-17 -0.08715574274765907
  outer loop
    vertex 1.3118448245572973 13.250000000000002 3.775504366066819
    vertex 1.2746180162456653 15.75 3.3499999999999996
    vertex 1.311844824557297 15.75 3.7755043660668175
  endloop
endfacet
facet normal 0.9961946980917455 -4.602944188420728e-18 0.08715574274765853
  outer loop
    vertex 1.311844824557297 15.75 2.9244956339331813
    vertex 1.2746180162456653 13.250000000000002 3.35
    vertex 1.3118448245572967 13.250000000000002 2.9244956339331822
  endloop
endfacet
facet normal 0.9961946980917455 -4.602944188420728e-18 0.08715574274765853
  outer loop
    vertex 1.2746180162456653 13.250000000000002 3.35
    vertex 1.311844824557297 15.75 2.9244956339331813
    vertex 1.2746180162456653 15.75 3.3499999999999996
  endloop
endfacet
facet normal -0.9961946980917455 -1.1705095016387019e-17 -0.08715574274765839
  outer loop
    vertex 0.07003421119364815 15.75 3.3499999999999996
    vertex 0.12556135418912423 13.250000000000002 2.7153218513388016
    vertex 0.07003421119364815 13.250000000000002 3.35
  endloop
endfacet
facet normal -0.9961946980917455 -1.1705095016387019e-17 -0.08715574274765839
  outer loop
    vertex 0.12556135418912423 13.250000000000002 2.7153218513388016
    vertex 0.07003421119364815 15.75 3.3499999999999996
    vertex 0.12556135418912423 15.75 2.7153218513388016
  endloop
endfacet
facet normal -0.9961946980917455 2.536103920217195e-17 0.08715574274765854
  outer loop
    vertex 0.12556135418912423 15.75 3.984678148661197
    vertex 0.07003421119364815 13.250000000000002 3.35
    vertex 0.12556135418912423 13.250000000000002 3.9846781486611973
  endloop
endfacet
facet normal -0.9961946980917455 2.536103920217195e-17 0.08715574274765854
  outer loop
    vertex 0.07003421119364815 13.250000000000002 3.35
    vertex 0.12556135418912423 15.75 3.984678148661197
    vertex 0.07003421119364815 15.75 3.3499999999999996
  endloop
endfacet
facet normal -0.9659258262890684 3.280532219821621e-17 -0.25881904510252035
  outer loop
    vertex 0.12556135418912423 15.75 2.7153218513388016
    vertex 0.2904556190337239 13.250000000000002 2.0999280770620357
    vertex 0.12556135418912423 13.250000000000002 2.7153218513388016
  endloop
endfacet
facet normal -0.9659258262890684 3.280532219821621e-17 -0.25881904510252035
  outer loop
    vertex 0.2904556190337239 13.250000000000002 2.0999280770620357
    vertex 0.12556135418912423 15.75 2.7153218513388016
    vertex 0.2904556190337243 15.75 2.0999280770620348
  endloop
endfacet
facet normal -0.819152044288992 -2.5686791200306647e-17 -0.5735764363510462
  outer loop
    vertex 0.55970677693067 15.75 1.5225171055968234
    vertex 0.925133767694922 13.250000000000002 1.000633277127088
    vertex 0.5597067769306698 13.250000000000002 1.522517105596824
  endloop
endfacet
facet normal -0.819152044288992 -2.5686791200306647e-17 -0.5735764363510462
  outer loop
    vertex 0.925133767694922 13.250000000000002 1.000633277127088
    vertex 0.55970677693067 15.75 1.5225171055968234
    vertex 0.925133767694922 15.75 1.000633277127088
  endloop
endfacet
facet normal 0.9659258262890685 -9.798909775901983e-18 -0.25881904510251985
  outer loop
    vertex 1.311844824557297 15.75 3.7755043660668175
    vertex 1.4223941317593163 13.250000000000002 4.1880799972862945
    vertex 1.3118448245572973 13.250000000000002 3.775504366066819
  endloop
endfacet
facet normal 0.9659258262890685 -9.798909775901983e-18 -0.25881904510251985
  outer loop
    vertex 1.4223941317593163 13.250000000000002 4.1880799972862945
    vertex 1.311844824557297 15.75 3.7755043660668175
    vertex 1.4223941317593158 15.75 4.188079997286294
  endloop
endfacet
facet normal -0.9063077870366498 -8.038059205672535e-18 -0.4226182617406997
  outer loop
    vertex 0.2904556190337243 15.75 2.0999280770620348
    vertex 0.5597067769306698 13.250000000000002 1.522517105596824
    vertex 0.2904556190337239 13.250000000000002 2.0999280770620357
  endloop
endfacet
facet normal -0.9063077870366498 -8.038059205672535e-18 -0.4226182617406997
  outer loop
    vertex 0.5597067769306698 13.250000000000002 1.522517105596824
    vertex 0.2904556190337243 15.75 2.0999280770620348
    vertex 0.55970677693067 15.75 1.5225171055968234
  endloop
endfacet
facet normal 0.0 0.0 1.0
  outer loop
    vertex 7.449999999999999 2.3000000000000007 0.9999999999999999
    vertex 0.925133767694922 8.75 1.000633277127088
    vertex 0.0 2.3000000000000007 0.9999999999999999
  endloop
endfacet
facet normal 0.0 0.0 1.0
  outer loop
    vertex 0.925133767694922 8.75 1.000633277127088
    vertex 7.449999999999999 2.3000000000000007 0.9999999999999999
    vertex 3.063797310420087 8.75 0.9999999999999999
  endloop
endfacet
facet normal 0.0 0.0 1.0
  outer loop
    vertex 3.063797310420087 8.75 0.9999999999999999
    vertex 7.449999999999999 2.3000000000000007 0.9999999999999999
    vertex 3.063797310420087 11.25 0.9999999999999999
  endloop
endfacet
facet normal 0.0 0.0 1.0
  outer loop
    vertex 3.063797310420087 11.25 0.9999999999999999
    vertex 7.449999999999999 2.3000000000000007 0.9999999999999999
    vertex 4.386202689579911 8.75 0.9999999999999999
  endloop
endfacet
facet normal 0.0 0.0 1.0
  outer loop
    vertex 3.063797310420087 11.25 0.9999999999999999
    vertex 4.386202689579911 8.75 0.9999999999999999
    vertex 3.063797310420087 13.250000000000002 0.9999999999999999
  endloop
endfacet
facet normal 0.0 0.0 1.0
  outer loop
    vertex 3.063797310420087 13.250000000000002 0.9999999999999999
    vertex 4.386202689579911 8.75 0.9999999999999999
    vertex 3.063797310420087 15.75 0.9999999999999999
  endloop
endfacet
facet normal 0.0 0.0 1.0
  outer loop
    vertex 4.386202689579911 8.75 0.9999999999999999
    vertex 7.449999999999999 2.3000000000000007 0.9999999999999999
    vertex 6.524866232305086 8.75 1.0006332771270987
  endloop
endfacet
facet normal 0.0 0.0 1.0
  outer loop
    vertex 6.524866232305086 8.75 1.0006332771270987
    vertex 7.449999999999999 2.3000000000000007 0.9999999999999999
    vertex 6.524866232305086 11.25 0.9999999999999999
  endloop
endfacet
facet normal 0.0 0.0 1.0
  outer loop
    vertex 6.524866232305086 11.25 0.9999999999999999
    vertex 7.449999999999999 2.3000000000000007 0.9999999999999999
    vertex 6.524866232305086 13.250000000000002 0.9999999999999999
  endloop
endfacet
facet normal 0.0 0.0 1.0
  outer loop
    vertex 6.524866232305086 13.250000000000002 0.9999999999999999
    vertex 7.449999999999999 2.3000000000000007 0.9999999999999999
    vertex 6.524866232305086 15.75 1.0006332771270987
  endloop
endfacet
facet normal 0.0 0.0 1.0
  outer loop
    vertex -3.2358450883335045e-16 22.2 1.0000000000000009
    vertex 0.925133767694922 15.75 1.000633277127088
    vertex 7.449999999999999 22.2 1.0000000000000009
  endloop
endfacet
facet normal 0.0 0.0 1.0
  outer loop
    vertex 0.925133767694922 15.75 1.000633277127088
    vertex -3.2358450883335045e-16 22.2 1.0000000000000009
    vertex 0.0 2.3000000000000007 0.9999999999999999
  endloop
endfacet
facet normal 0.0 0.0 1.0
  outer loop
    vertex 0.925133767694922 15.75 1.000633277127088
    vertex 0.0 2.3000000000000007 0.9999999999999999
    vertex 0.925133767694922 8.75 1.000633277127088
  endloop
endfacet
facet normal 0.0 0.0 1.0
  outer loop
    vertex 0.925133767694922 15.75 1.000633277127088
    vertex 0.925133767694922 8.75 1.000633277127088
    vertex 0.925133767694922 13.250000000000002 1.000633277127088
  endloop
endfacet
facet normal 0.0 0.0 1.0
  outer loop
    vertex 7.449999999999999 22.2 1.0000000000000009
    vertex 0.925133767694922 15.75 1.000633277127088
    vertex 3.063797310420087 15.75 0.9999999999999999
  endloop
endfacet
facet normal 0.0 0.0 1.0
  outer loop
    vertex 7.449999999999999 22.2 1.0000000000000009
    vertex 3.063797310420087 15.75 0.9999999999999999
    vertex 4.386202689579911 15.75 0.9999999999999999
  endloop
endfacet
facet normal 0.0 0.0 1.0
  outer loop
    vertex 4.386202689579911 15.75 0.9999999999999999
    vertex 3.063797310420087 15.75 0.9999999999999999
    vertex 4.386202689579911 8.75 0.9999999999999999
  endloop
endfacet
facet normal 0.0 0.0 1.0
  outer loop
    vertex 4.386202689579911 15.75 0.9999999999999999
    vertex 4.386202689579911 8.75 0.9999999999999999
    vertex 4.386202689579911 11.25 0.9999999999999999
  endloop
endfacet
facet normal 0.0 0.0 1.0
  outer loop
    vertex 4.386202689579911 15.75 0.9999999999999999
    vertex 4.386202689579911 11.25 0.9999999999999999
    vertex 4.386202689579911 13.250000000000002 0.9999999999999999
  endloop
endfacet
facet normal 0.0 0.0 1.0
  outer loop
    vertex 7.449999999999999 22.2 1.0000000000000009
    vertex 4.386202689579911 15.75 0.9999999999999999
    vertex 6.524866232305086 15.75 1.0006332771270987
  endloop
endfacet
facet normal 0.0 0.0 1.0
  outer loop
    vertex 7.449999999999999 22.2 1.0000000000000009
    vertex 6.524866232305086 15.75 1.0006332771270987
    vertex 7.449999999999999 2.3000000000000007 0.9999999999999999
  endloop
endfacet
facet normal 0.0 0.0 1.0
  outer loop
    vertex 6.524866232305086 11.25 0.9999999999999999
    vertex 4.386202689579911 13.250000000000002 0.9999999999999999
    vertex 4.386202689579911 11.25 0.9999999999999999
  endloop
endfacet
facet normal 0.0 0.0 1.0
  outer loop
    vertex 4.386202689579911 13.250000000000002 0.9999999999999999
    vertex 6.524866232305086 11.25 0.9999999999999999
    vertex 6.524866232305086 13.250000000000002 0.9999999999999999
  endloop
endfacet
facet normal 0.0 0.0 1.0
  outer loop
    vertex 0.9255771931130841 11.25 1.0000000000000009
    vertex 0.925133767694922 13.250000000000002 1.000633277127088
    vertex 0.925133767694922 8.75 1.000633277127088
  endloop
endfacet
facet normal 0.0 0.0 1.0
  outer loop
    vertex 0.925133767694922 13.250000000000002 1.000633277127088
    vertex 0.9255771931130841 11.25 1.0000000000000009
    vertex 3.063797310420087 13.250000000000002 0.9999999999999999
  endloop
endfacet
facet normal 0.0 0.0 1.0
  outer loop
    vertex 3.063797310420087 13.250000000000002 0.9999999999999999
    vertex 0.9255771931130841 11.25 1.0000000000000009
    vertex 3.063797310420087 11.25 0.9999999999999999
  endloop
endfacet
facet normal 0.0 -1.0 0.0
  outer loop
    vertex 6.890293223069335 13.250000000000002 1.5225171055968356
    vertex 4.386202689579911 13.250000000000002 0.9999999999999999
    vertex 6.524866232305086 13.250000000000002 0.9999999999999999
  endloop
endfacet
facet normal 0.0 -1.0 0.0
  outer loop
    vertex 4.386202689579911 13.250000000000002 0.9999999999999999
    vertex 6.890293223069335 13.250000000000002 1.5225171055968356
    vertex 4.563079997286305 13.250000000000002 1.0473941317593203
  endloop
endfacet
facet normal 0.0 -1.0 0.0
  outer loop
    vertex 4.563079997286305 13.250000000000002 1.0473941317593203
    vertex 6.890293223069335 13.250000000000002 1.5225171055968356
    vertex 4.950190991877177 13.250000000000002 1.2279069530930442
  endloop
endfacet
facet normal 0.0 -1.0 0.0
  outer loop
    vertex 4.950190991877177 13.250000000000002 1.2279069530930442
    vertex 6.890293223069335 13.250000000000002 1.5225171055968356
    vertex 5.3000751781564155 13.250000000000002 1.47289849782614
  endloop
endfacet
facet normal 0.0 -1.0 0.0
  outer loop
    vertex 5.3000751781564155 13.250000000000002 1.47289849782614
    vertex 6.890293223069335 13.250000000000002 1.5225171055968356
    vertex 5.602101502173871 13.250000000000002 1.7749248218435976
  endloop
endfacet
facet normal 0.0 -1.0 0.0
  outer loop
    vertex 5.602101502173871 13.250000000000002 1.7749248218435976
    vertex 6.890293223069335 13.250000000000002 1.5225171055968356
    vertex 7.159544380966277 13.250000000000002 2.0999280770620463
  endloop
endfacet
facet normal 0.0 -1.0 0.0
  outer loop
    vertex 5.602101502173871 13.250000000000002 1.7749248218435976
    vertex 7.159544380966277 13.250000000000002 2.0999280770620463
    vertex 5.8470930469069655 13.250000000000002 2.1248090081228406
  endloop
endfacet
facet normal 0.0 -1.0 0.0
  outer loop
    vertex 5.8470930469069655 13.250000000000002 2.1248090081228406
    vertex 7.159544380966277 13.250000000000002 2.0999280770620463
    vertex 7.3244386458108774 13.250000000000002 2.715321851338813
  endloop
endfacet
facet normal 0.0 -1.0 0.0
  outer loop
    vertex 5.8470930469069655 13.250000000000002 2.1248090081228406
    vertex 7.3244386458108774 13.250000000000002 2.715321851338813
    vertex 6.027605868240687 13.250000000000002 2.511920002713714
  endloop
endfacet
facet normal 0.0 -1.0 0.0
  outer loop
    vertex 6.027605868240687 13.250000000000002 2.511920002713714
    vertex 7.3244386458108774 13.250000000000002 2.715321851338813
    vertex 6.138155175442704 13.250000000000002 2.9244956339331902
  endloop
endfacet
facet normal 0.0 -1.0 0.0
  outer loop
    vertex 6.138155175442704 13.250000000000002 2.9244956339331902
    vertex 7.3244386458108774 13.250000000000002 2.715321851338813
    vertex 7.379965788806353 13.250000000000002 3.3500000000000116
  endloop
endfacet
facet normal 0.0 -1.0 0.0
  outer loop
    vertex 6.138155175442704 13.250000000000002 2.9244956339331902
    vertex 7.379965788806353 13.250000000000002 3.3500000000000116
    vertex 6.175381983754334 13.250000000000002 3.350000000000007
  endloop
endfacet
facet normal 0.0 -1.0 0.0
  outer loop
    vertex 6.175381983754334 13.250000000000002 3.350000000000007
    vertex 7.379965788806353 13.250000000000002 3.3500000000000116
    vertex 6.1381551754427015 13.250000000000002 3.775504366066825
  endloop
endfacet
facet normal 0.0 -1.0 0.0
  outer loop
    vertex 6.1381551754427015 13.250000000000002 3.775504366066825
    vertex 7.379965788806353 13.250000000000002 3.3500000000000116
    vertex 7.324438645810873 13.250000000000002 3.984678148661208
  endloop
endfacet
facet normal 0.0 -1.0 0.0
  outer loop
    vertex 6.1381551754427015 13.250000000000002 3.775504366066825
    vertex 7.324438645810873 13.250000000000002 3.984678148661208
    vertex 6.0276058682406815 13.250000000000002 4.188079997286299
  endloop
endfacet
facet normal 0.0 -1.0 0.0
  outer loop
    vertex 6.0276058682406815 13.250000000000002 4.188079997286299
    vertex 7.324438645810873 13.250000000000002 3.984678148661208
    vertex 7.159544380966272 13.250000000000002 4.600071922937973
  endloop
endfacet
facet normal 0.0 -1.0 0.0
  outer loop
    vertex 6.0276058682406815 13.250000000000002 4.188079997286299
    vertex 7.159544380966272 13.250000000000002 4.600071922937973
    vertex 5.952101330966799 13.250000000000002 4.350000000000005
  endloop
endfacet
facet normal 0.0 -1.0 0.0
  outer loop
    vertex 5.952101330966799 13.250000000000002 4.350000000000005
    vertex 7.159544380966272 13.250000000000002 4.600071922937973
    vertex 6.8902932230693255 13.250000000000002 5.177482894403183
  endloop
endfacet
facet normal 0.9063077870366496 2.1885815914980435e-17 -0.4226182617407002
  outer loop
    vertex 1.4223941317593163 11.25 4.1880799972862945
    vertex 1.4978986690331948 8.75 4.349999999999999
    vertex 1.4223941317593158 8.75 4.188079997286294
  endloop
endfacet
facet normal 0.9063077870366496 2.1885815914980435e-17 -0.4226182617407002
  outer loop
    vertex 1.4978986690331948 8.75 4.349999999999999
    vertex 1.4223941317593163 11.25 4.1880799972862945
    vertex 1.497898669033195 11.25 4.349999999999999
  endloop
endfacet
facet normal -1.0993516023415659e-17 1.0 4.198318791465113e-18
  outer loop
    vertex 0.9255771931130841 11.25 1.0000000000000009
    vertex 2.8869200027137056 11.25 1.047394131759316
    vertex 3.063797310420087 11.25 0.9999999999999999
  endloop
endfacet
facet normal -1.0993516023415659e-17 1.0 4.198318791465113e-18
  outer loop
    vertex 2.8869200027137056 11.25 1.047394131759316
    vertex 0.9255771931130841 11.25 1.0000000000000009
    vertex 0.5597067769306698 11.25 1.522517105596824
  endloop
endfacet
facet normal -1.0993516023415659e-17 1.0 4.198318791465113e-18
  outer loop
    vertex 2.8869200027137056 11.25 1.047394131759316
    vertex 0.5597067769306698 11.25 1.522517105596824
    vertex 2.499809008122833 11.25 1.227906953093038
  endloop
endfacet
facet normal -1.0993516023415659e-17 1.0 4.198318791465113e-18
  outer loop
    vertex 2.499809008122833 11.25 1.227906953093038
    vertex 0.5597067769306698 11.25 1.522517105596824
    vertex 2.1499248218435905 11.25 1.4728984978261337
  endloop
endfacet
facet normal -1.0993516023415659e-17 1.0 4.198318791465113e-18
  outer loop
    vertex 2.1499248218435905 11.25 1.4728984978261337
    vertex 0.5597067769306698 11.25 1.522517105596824
    vertex 1.8478984978261341 11.25 1.774924821843591
  endloop
endfacet
facet normal -1.0993516023415659e-17 1.0 4.198318791465113e-18
  outer loop
    vertex 1.8478984978261341 11.25 1.774924821843591
    vertex 0.5597067769306698 11.25 1.522517105596824
    vertex 0.2904556190337239 11.25 2.0999280770620357
  endloop
endfacet
facet normal -1.0993516023415659e-17 1.0 4.198318791465113e-18
  outer loop
    vertex 1.8478984978261341 11.25 1.774924821843591
    vertex 0.2904556190337239 11.25 2.0999280770620357
    vertex 1.6029069530930387 11.25 2.1248090081228326
  endloop
endfacet
facet normal -1.0993516023415659e-17 1.0 4.198318791465113e-18
  outer loop
    vertex 1.6029069530930387 11.25 2.1248090081228326
    vertex 0.2904556190337239 11.25 2.0999280770620357
    vertex 0.12556135418912423 11.25 2.7153218513388016
  endloop
endfacet
facet normal -1.0993516023415659e-17 1.0 4.198318791465113e-18
  outer loop
    vertex 1.6029069530930387 11.25 2.1248090081228326
    vertex 0.12556135418912423 11.25 2.7153218513388016
    vertex 1.4223941317593158 11.250000000000002 2.5119200027137056
  endloop
endfacet
facet normal -1.0993516023415659e-17 1.0 4.198318791465113e-18
  outer loop
    vertex 1.4223941317593158 11.250000000000002 2.5119200027137056
    vertex 0.12556135418912423 11.25 2.7153218513388016
    vertex 1.3118448245572967 11.25 2.9244956339331822
  endloop
endfacet
facet normal -1.0993516023415659e-17 1.0 4.198318791465113e-18
  outer loop
    vertex 1.3118448245572967 11.25 2.9244956339331822
    vertex 0.12556135418912423 11.25 2.7153218513388016
    vertex 0.07003421119364815 11.25 3.35
  endloop
endfacet
facet normal -1.0993516023415659e-17 1.0 4.198318791465113e-18
  outer loop
    vertex 1.3118448245572967 11.25 2.9244956339331822
    vertex 0.07003421119364815 11.25 3.35
    vertex 1.2746180162456653 11.25 3.35
  endloop
endfacet
facet normal -1.0993516023415659e-17 1.0 4.198318791465113e-18
  outer loop
    vertex 1.2746180162456653 11.25 3.35
    vertex 0.07003421119364815 11.25 3.35
    vertex 0.12556135418912423 11.25 3.9846781486611973
  endloop
endfacet
facet normal -1.0993516023415659e-17 1.0 4.198318791465113e-18
  outer loop
    vertex 1.2746180162456653 11.25 3.35
    vertex 0.12556135418912423 11.25 3.9846781486611973
    vertex 1.3118448245572973 11.25 3.775504366066819
  endloop
endfacet
facet normal -1.0993516023415659e-17 1.0 4.198318791465113e-18
  outer loop
    vertex 1.3118448245572973 11.25 3.775504366066819
    vertex 0.12556135418912423 11.25 3.9846781486611973
    vertex 1.4223941317593163 11.25 4.1880799972862945
  endloop
endfacet
facet normal -1.0993516023415659e-17 1.0 4.198318791465113e-18
  outer loop
    vertex 1.4223941317593163 11.25 4.1880799972862945
    vertex 0.12556135418912423 11.25 3.9846781486611973
    vertex 0.2904556190337243 11.25 4.600071922937963
  endloop
endfacet
facet normal -1.0993516023415659e-17 1.0 4.198318791465113e-18
  outer loop
    vertex 1.4223941317593163 11.25 4.1880799972862945
    vertex 0.2904556190337243 11.25 4.600071922937963
    vertex 1.497898669033195 11.25 4.349999999999999
  endloop
endfacet
facet normal -1.0993516023415659e-17 1.0 4.198318791465113e-18
  outer loop
    vertex 1.497898669033195 11.25 4.349999999999999
    vertex 0.2904556190337243 11.25 4.600071922937963
    vertex 0.5597067769306696 11.25 5.177482894403175
  endloop
endfacet
facet normal -0.9063077870366456 -1.9572403622810641e-16 -0.42261826174070877
  outer loop
    vertex 5.952101330966799 11.25 4.350000000000005
    vertex 6.0276058682406815 8.75 4.188079997286298
    vertex 5.9521013309668005 8.75 4.350000000000005
  endloop
endfacet
facet normal -0.9063077870366456 -1.9572403622810641e-16 -0.42261826174070877
  outer loop
    vertex 6.0276058682406815 8.75 4.188079997286298
    vertex 5.952101330966799 11.25 4.350000000000005
    vertex 6.0276058682406815 11.25 4.188079997286299
  endloop
endfacet
facet normal -0.2588190451025259 -2.955867157981484e-17 0.9659258262890669
  outer loop
    vertex 4.563079997286303 8.75 1.0473941317593196
    vertex 4.386202689579911 11.25 0.9999999999999999
    vertex 4.386202689579911 8.75 0.9999999999999999
  endloop
endfacet
facet normal -0.2588190451025259 -2.955867157981484e-17 0.9659258262890669
  outer loop
    vertex 4.386202689579911 11.25 0.9999999999999999
    vertex 4.563079997286303 8.75 1.0473941317593196
    vertex 4.563079997286305 11.25 1.0473941317593203
  endloop
endfacet
facet normal 3.4956481976252655e-17 1.0 2.0939648765932782e-16
  outer loop
    vertex 4.563079997286305 11.25 1.0473941317593203
    vertex 6.524866232305086 11.25 0.9999999999999999
    vertex 4.386202689579911 11.25 0.9999999999999999
  endloop
endfacet
facet normal 3.4956481976252655e-17 1.0 2.0939648765932782e-16
  outer loop
    vertex 6.524866232305086 11.25 0.9999999999999999
    vertex 4.563079997286305 11.25 1.0473941317593203
    vertex 6.890293223069335 11.25 1.5225171055968356
  endloop
endfacet
facet normal 3.4956481976252655e-17 1.0 2.0939648765932782e-16
  outer loop
    vertex 6.890293223069335 11.25 1.5225171055968356
    vertex 4.563079997286305 11.25 1.0473941317593203
    vertex 4.950190991877177 11.25 1.2279069530930442
  endloop
endfacet
facet normal 3.4956481976252655e-17 1.0 2.0939648765932782e-16
  outer loop
    vertex 6.890293223069335 11.25 1.5225171055968356
    vertex 4.950190991877177 11.25 1.2279069530930442
    vertex 5.3000751781564155 11.25 1.47289849782614
  endloop
endfacet
facet normal 3.4956481976252655e-17 1.0 2.0939648765932782e-16
  outer loop
    vertex 6.890293223069335 11.25 1.5225171055968356
    vertex 5.3000751781564155 11.25 1.47289849782614
    vertex 5.602101502173871 11.250000000000002 1.7749248218435976
  endloop
endfacet
facet normal 3.4956481976252655e-17 1.0 2.0939648765932782e-16
  outer loop
    vertex 6.890293223069335 11.25 1.5225171055968356
    vertex 5.602101502173871 11.250000000000002 1.7749248218435976
    vertex 7.159544380966277 11.25 2.0999280770620463
  endloop
endfacet
facet normal 3.4956481976252655e-17 1.0 2.0939648765932782e-16
  outer loop
    vertex 7.159544380966277 11.25 2.0999280770620463
    vertex 5.602101502173871 11.250000000000002 1.7749248218435976
    vertex 5.8470930469069655 11.25 2.1248090081228406
  endloop
endfacet
facet normal 3.4956481976252655e-17 1.0 2.0939648765932782e-16
  outer loop
    vertex 7.159544380966277 11.25 2.0999280770620463
    vertex 5.8470930469069655 11.25 2.1248090081228406
    vertex 7.3244386458108774 11.25 2.715321851338813
  endloop
endfacet
facet normal 3.4956481976252655e-17 1.0 2.0939648765932782e-16
  outer loop
    vertex 7.3244386458108774 11.25 2.715321851338813
    vertex 5.8470930469069655 11.25 2.1248090081228406
    vertex 6.027605868240687 11.25 2.511920002713714
  endloop
endfacet
facet normal 3.4956481976252655e-17 1.0 2.0939648765932782e-16
  outer loop
    vertex 7.3244386458108774 11.25 2.715321851338813
    vertex 6.027605868240687 11.25 2.511920002713714
    vertex 6.138155175442704 11.25 2.9244956339331902
  endloop
endfacet
facet normal 3.4956481976252655e-17 1.0 2.0939648765932782e-16
  outer loop
    vertex 7.3244386458108774 11.25 2.715321851338813
    vertex 6.138155175442704 11.25 2.9244956339331902
    vertex 7.379965788806353 11.25 3.3500000000000116
  endloop
endfacet
facet normal 3.4956481976252655e-17 1.0 2.0939648765932782e-16
  outer loop
    vertex 7.379965788806353 11.25 3.3500000000000116
    vertex 6.138155175442704 11.25 2.9244956339331902
    vertex 6.175381983754334 11.25 3.350000000000007
  endloop
endfacet
facet normal 3.4956481976252655e-17 1.0 2.0939648765932782e-16
  outer loop
    vertex 7.379965788806353 11.25 3.3500000000000116
    vertex 6.175381983754334 11.25 3.350000000000007
    vertex 6.1381551754427015 11.25 3.775504366066825
  endloop
endfacet
facet normal 3.4956481976252655e-17 1.0 2.0939648765932782e-16
  outer loop
    vertex 7.379965788806353 11.25 3.3500000000000116
    vertex 6.1381551754427015 11.25 3.775504366066825
    vertex 7.324438645810873 11.25 3.984678148661208
  endloop
endfacet
facet normal 3.4956481976252655e-17 1.0 2.0939648765932782e-16
  outer loop
    vertex 7.324438645810873 11.25 3.984678148661208
    vertex 6.1381551754427015 11.25 3.775504366066825
    vertex 6.0276058682406815 11.25 4.188079997286299
  endloop
endfacet
facet normal 3.4956481976252655e-17 1.0 2.0939648765932782e-16
  outer loop
    vertex 7.324438645810873 11.25 3.984678148661208
    vertex 6.0276058682406815 11.25 4.188079997286299
    vertex 7.159544380966272 11.25 4.600071922937973
  endloop
endfacet
facet normal 3.4956481976252655e-17 1.0 2.0939648765932782e-16
  outer loop
    vertex 7.159544380966272 11.25 4.600071922937973
    vertex 6.0276058682406815 11.25 4.188079997286299
    vertex 5.952101330966799 11.25 4.350000000000005
  endloop
endfacet
facet normal 3.4956481976252655e-17 1.0 2.0939648765932782e-16
  outer loop
    vertex 7.159544380966272 11.25 4.600071922937973
    vertex 5.952101330966799 11.25 4.350000000000005
    vertex 6.8902932230693255 11.25 5.177482894403183
  endloop
endfacet
facet normal 0.2588190451025202 3.4458126467767926e-17 0.9659258262890684
  outer loop
    vertex 3.063797310420087 13.250000000000002 0.9999999999999999
    vertex 2.8869200027137056 15.75 1.0473941317593158
    vertex 2.8869200027137056 13.250000000000002 1.047394131759316
  endloop
endfacet
facet normal 0.2588190451025202 3.4458126467767926e-17 0.9659258262890684
  outer loop
    vertex 2.8869200027137056 15.75 1.0473941317593158
    vertex 3.063797310420087 13.250000000000002 0.9999999999999999
    vertex 3.063797310420087 15.75 0.9999999999999999
  endloop
endfacet
facet normal 0.0 -1.0 0.0
  outer loop
    vertex 2.8869200027137056 13.250000000000002 1.047394131759316
    vertex 0.925133767694922 13.250000000000002 1.000633277127088
    vertex 3.063797310420087 13.250000000000002 0.9999999999999999
  endloop
endfacet
facet normal 0.0 -1.0 0.0
  outer loop
    vertex 0.925133767694922 13.250000000000002 1.000633277127088
    vertex 2.8869200027137056 13.250000000000002 1.047394131759316
    vertex 0.5597067769306698 13.250000000000002 1.522517105596824
  endloop
endfacet
facet normal 0.0 -1.0 0.0
  outer loop
    vertex 0.5597067769306698 13.250000000000002 1.522517105596824
    vertex 2.8869200027137056 13.250000000000002 1.047394131759316
    vertex 2.499809008122833 13.250000000000002 1.227906953093038
  endloop
endfacet
facet normal 0.0 -1.0 0.0
  outer loop
    vertex 0.5597067769306698 13.250000000000002 1.522517105596824
    vertex 2.499809008122833 13.250000000000002 1.227906953093038
    vertex 2.1499248218435905 13.250000000000002 1.4728984978261337
  endloop
endfacet
facet normal 0.0 -1.0 0.0
  outer loop
    vertex 0.5597067769306698 13.250000000000002 1.522517105596824
    vertex 2.1499248218435905 13.250000000000002 1.4728984978261337
    vertex 1.8478984978261341 13.250000000000002 1.774924821843591
  endloop
endfacet
facet normal 0.0 -1.0 0.0
  outer loop
    vertex 0.5597067769306698 13.250000000000002 1.522517105596824
    vertex 1.8478984978261341 13.250000000000002 1.774924821843591
    vertex 0.2904556190337239 13.250000000000002 2.0999280770620357
  endloop
endfacet
facet normal 0.0 -1.0 0.0
  outer loop
    vertex 0.2904556190337239 13.250000000000002 2.0999280770620357
    vertex 1.8478984978261341 13.250000000000002 1.774924821843591
    vertex 1.6029069530930387 13.250000000000002 2.1248090081228326
  endloop
endfacet
facet normal 0.0 -1.0 0.0
  outer loop
    vertex 0.2904556190337239 13.250000000000002 2.0999280770620357
    vertex 1.6029069530930387 13.250000000000002 2.1248090081228326
    vertex 0.12556135418912423 13.250000000000002 2.7153218513388016
  endloop
endfacet
facet normal 0.0 -1.0 0.0
  outer loop
    vertex 0.12556135418912423 13.250000000000002 2.7153218513388016
    vertex 1.6029069530930387 13.250000000000002 2.1248090081228326
    vertex 1.4223941317593158 13.250000000000002 2.5119200027137056
  endloop
endfacet
facet normal 0.0 -1.0 0.0
  outer loop
    vertex 0.12556135418912423 13.250000000000002 2.7153218513388016
    vertex 1.4223941317593158 13.250000000000002 2.5119200027137056
    vertex 1.3118448245572967 13.250000000000002 2.9244956339331822
  endloop
endfacet
facet normal 0.0 -1.0 0.0
  outer loop
    vertex 0.12556135418912423 13.250000000000002 2.7153218513388016
    vertex 1.3118448245572967 13.250000000000002 2.9244956339331822
    vertex 0.07003421119364815 13.250000000000002 3.35
  endloop
endfacet
facet normal 0.0 -1.0 0.0
  outer loop
    vertex 0.07003421119364815 13.250000000000002 3.35
    vertex 1.3118448245572967 13.250000000000002 2.9244956339331822
    vertex 1.2746180162456653 13.250000000000002 3.35
  endloop
endfacet
facet normal 0.0 -1.0 0.0
  outer loop
    vertex 0.07003421119364815 13.250000000000002 3.35
    vertex 1.2746180162456653 13.250000000000002 3.35
    vertex 1.3118448245572973 13.250000000000002 3.775504366066819
  endloop
endfacet
facet normal 0.0 -1.0 0.0
  outer loop
    vertex 0.07003421119364815 13.250000000000002 3.35
    vertex 1.3118448245572973 13.250000000000002 3.775504366066819
    vertex 0.12556135418912423 13.250000000000002 3.9846781486611973
  endloop
endfacet
facet normal 0.0 -1.0 0.0
  outer loop
    vertex 0.12556135418912423 13.250000000000002 3.9846781486611973
    vertex 1.3118448245572973 13.250000000000002 3.775504366066819
    vertex 1.4223941317593163 13.250000000000002 4.1880799972862945
  endloop
endfacet
facet normal 0.0 -1.0 0.0
  outer loop
    vertex 0.12556135418912423 13.250000000000002 3.9846781486611973
    vertex 1.4223941317593163 13.250000000000002 4.1880799972862945
    vertex 0.2904556190337243 13.250000000000002 4.600071922937963
  endloop
endfacet
facet normal 0.0 -1.0 0.0
  outer loop
    vertex 0.2904556190337243 13.250000000000002 4.600071922937963
    vertex 1.4223941317593163 13.250000000000002 4.1880799972862945
    vertex 1.497898669033195 13.250000000000002 4.349999999999999
  endloop
endfacet
facet normal 0.0 -1.0 0.0
  outer loop
    vertex 0.2904556190337243 13.250000000000002 4.600071922937963
    vertex 1.497898669033195 13.250000000000002 4.349999999999999
    vertex 0.5597067769306696 13.250000000000002 5.177482894403175
  endloop
endfacet
facet normal 1.283752758707683e-17 -1.0 5.741643446878609e-17
  outer loop
    vertex 7.449999999999999 1.5000000000000002 0.9999999999999999
    vertex -1.9256291380615244e-17 1.5 -8.612465170317914e-17
    vertex 7.449999999999999 1.5 -8.612465170317914e-17
  endloop
endfacet
facet normal 1.283752758707683e-17 -1.0 5.741643446878609e-17
  outer loop
    vertex -1.9256291380615244e-17 1.5 -8.612465170317914e-17
    vertex 7.449999999999999 1.5000000000000002 0.9999999999999999
    vertex -1.9256291380615244e-17 1.5000000000000002 0.9999999999999999
  endloop
endfacet
facet normal 1.283752758707683e-17 -1.0 5.741643446878609e-17
  outer loop
    vertex -1.9256291380615244e-17 1.5000000000000002 0.9999999999999999
    vertex 7.449999999999999 1.5000000000000002 0.9999999999999999
    vertex 6.449999999999999 1.5000000000000002 3.0
  endloop
endfacet
facet normal 1.283752758707683e-17 -1.0 5.741643446878609e-17
  outer loop
    vertex -1.9256291380615244e-17 1.5000000000000002 0.9999999999999999
    vertex 6.449999999999999 1.5000000000000002 3.0
    vertex 0.9999999999999998 1.5000000000000002 3.0
  endloop
endfacet
facet normal -0.8944271909999161 0.0 0.4472135954999579
  outer loop
    vertex 0.9999999999999998 2.3000000000000007 3.0
    vertex -1.9256291380615244e-17 1.5000000000000002 0.9999999999999999
    vertex 0.9999999999999998 1.5000000000000002 3.0
  endloop
endfacet
facet normal -0.8944271909999161 0.0 0.4472135954999579
  outer loop
    vertex -1.9256291380615244e-17 1.5000000000000002 0.9999999999999999
    vertex 0.9999999999999998 2.3000000000000007 3.0
    vertex 0.0 2.3000000000000007 0.9999999999999999
  endloop
endfacet
facet normal 0.0 1.0 0.0
  outer loop
    vertex 0.9999999999999998 2.3000000000000007 3.0
    vertex 7.449999999999999 2.3000000000000007 0.9999999999999999
    vertex 0.0 2.3000000000000007 0.9999999999999999
  endloop
endfacet
facet normal 0.0 1.0 0.0
  outer loop
    vertex 7.449999999999999 2.3000000000000007 0.9999999999999999
    vertex 0.9999999999999998 2.3000000000000007 3.0
    vertex 6.449999999999999 2.3000000000000007 3.0
  endloop
endfacet
facet normal 0.894427190999916 0.0 0.4472135954999578
  outer loop
    vertex 7.449999999999999 2.3000000000000007 0.9999999999999999
    vertex 6.449999999999999 1.5000000000000002 3.0
    vertex 7.449999999999999 1.5000000000000002 0.9999999999999999
  endloop
endfacet
facet normal 0.894427190999916 0.0 0.4472135954999578
  outer loop
    vertex 6.449999999999999 1.5000000000000002 3.0
    vertex 7.449999999999999 2.3000000000000007 0.9999999999999999
    vertex 6.449999999999999 2.3000000000000007 3.0
  endloop
endfacet
endsolid Littelfuse Caddy Cover
